<svg width="198" height="198" viewBox="0 0 198 198" fill="none" xmlns="http://www.w3.org/2000/svg">
<path d="M12.3155 82.8827C35.1251 67.0031 44.2727 28.2743 49.2227 27.7991C58.8455 26.8487 53.0639 57.3803 53.0639 57.3803C53.0639 57.3803 75.3983 56.4299 78.9227 62.6867C82.4471 68.9435 77.4179 70.5671 77.4179 70.5671C77.4179 70.5671 83.0411 78.0119 77.1803 81.6947C77.1803 81.6947 80.6651 87.5555 72.8243 90.7235C58.8851 96.3071 52.8659 96.1883 27.6011 104.781C27.6011 104.781 20.9483 108.741 14.9687 97.1783C10.9295 89.4563 12.3155 82.8827 12.3155 82.8827Z" fill="#A04040"/>
<path d="M61.5764 64.2312C58.0124 65.6172 54.4484 67.0428 50.924 68.4684C50.0924 68.7852 49.4192 69.3792 48.9836 70.1316C48.8252 70.488 48.7856 70.9236 48.944 71.28C49.1024 71.676 49.34 71.9928 49.6568 72.27C50.3696 72.8244 51.2012 73.1808 52.112 73.3788C53.0228 73.6164 53.9336 73.7352 54.884 73.8144C56.7848 73.9332 58.6856 73.9332 60.5468 73.7352C62.4476 73.5768 64.3088 73.2996 66.2096 72.9828C68.1104 72.666 69.9716 72.27 71.8328 71.874C73.694 71.478 75.5552 71.0028 77.4164 70.5276C73.7732 71.7948 70.0904 72.8244 66.3284 73.5768C62.5664 74.3292 58.7252 74.844 54.8048 74.5668C53.8148 74.4876 52.8644 74.3292 51.914 74.0916C50.924 73.854 50.0132 73.4184 49.1816 72.7848C48.746 72.4284 48.4292 71.9928 48.2708 71.478C48.1124 70.9236 48.152 70.3296 48.3896 69.8148C48.8648 68.8644 49.6964 68.1516 50.726 67.8348C54.29 66.5676 57.9332 65.34 61.5764 64.2312Z" fill="#000001"/>
<path d="M53.4207 75.834C52.6287 75.9528 51.8763 76.1904 51.1635 76.5468C50.8071 76.7052 50.5299 76.9824 50.2527 77.2596C50.0151 77.5368 49.8963 77.8932 49.8567 78.2496C49.8567 78.606 49.8963 79.002 50.0547 79.3188C50.2131 79.6356 50.4111 79.9524 50.6883 80.19C51.2427 80.7048 51.8763 81.18 52.5495 81.5364C53.2227 81.8928 53.9355 82.2492 54.6483 82.5264C55.3611 82.8036 56.1135 83.0808 56.8659 83.2788C58.3707 83.7144 59.9151 84.0312 61.4595 84.1896C64.5879 84.546 67.7559 84.3876 70.8051 83.7144C73.8939 83.0412 76.8639 81.8928 79.5963 80.3088C76.9827 82.17 74.0523 83.5164 70.9239 84.348C67.7955 85.14 64.5483 85.3776 61.3407 85.0212C59.7567 84.8628 58.1727 84.5064 56.6283 84.0708C55.0839 83.5956 53.5791 82.962 52.1931 82.1304C51.4803 81.7344 50.8467 81.2196 50.2527 80.6256C49.9359 80.3088 49.6983 79.9524 49.5399 79.5564C49.3815 79.1604 49.3419 78.7248 49.3815 78.2892C49.4607 77.8536 49.6191 77.4576 49.9359 77.1408C50.2131 76.8636 50.5695 76.626 50.9655 76.428C51.7971 76.0716 52.5891 75.8736 53.4207 75.834Z" fill="#000001"/>
<path d="M54.8862 85.2587C54.213 85.5359 53.619 85.8923 53.0646 86.3279C52.7874 86.5259 52.5498 86.8031 52.3914 87.1199C52.233 87.3971 52.233 87.7139 52.431 87.9911C52.8666 88.5059 53.421 88.9415 54.0546 89.1395C54.6882 89.4167 55.3614 89.6543 56.0346 89.8523C58.8066 90.5651 61.6182 91.0799 64.4694 91.4363C65.895 91.6343 67.281 91.7135 68.7066 91.7135C70.1322 91.7135 71.5182 91.5155 72.8646 91.1195C74.211 90.7235 75.3594 89.9315 76.191 88.7831C76.983 87.5951 77.3394 86.1695 77.2206 84.7439C77.379 85.4567 77.379 86.2091 77.2603 86.9219C77.1414 87.6743 76.9038 88.3475 76.5078 88.9811C76.1118 89.6147 75.597 90.1691 75.003 90.6443C74.409 91.0799 73.7358 91.4363 73.023 91.7135C71.637 92.1887 70.1322 92.4659 68.667 92.4659C67.2018 92.5055 65.7366 92.4263 64.311 92.2283C62.8854 92.0303 61.4598 91.7927 60.0342 91.5155C58.6086 91.2383 57.2226 90.8819 55.8366 90.4463C55.1238 90.2087 54.4506 89.9315 53.817 89.6147C53.5002 89.4563 53.1834 89.2583 52.8666 89.0603C52.5498 88.8227 52.2726 88.5455 52.0746 88.1891C51.9954 87.9911 51.9162 87.7931 51.9558 87.5951C51.9558 87.3971 52.035 87.1991 52.1142 87.0011C52.3122 86.6843 52.5894 86.4071 52.9062 86.2091C53.5002 85.7735 54.1734 85.4567 54.8862 85.2587Z" fill="#000001"/>
<path d="M51.7162 59.479C51.5974 62.251 51.043 64.9438 50.053 67.5178C49.1026 70.0918 47.875 72.5866 46.3702 74.923C45.5782 76.0318 44.8258 77.2198 43.915 78.2494C43.4794 78.7642 43.0438 79.3186 42.6082 79.8334L41.1826 81.3382C40.945 81.5758 40.7074 81.853 40.4698 82.0906L39.7174 82.8034L38.173 84.1894C37.6582 84.625 37.1038 85.021 36.5494 85.4566C35.995 85.8922 35.4802 86.2882 34.9258 86.6842C35.9158 85.7338 36.9454 84.8626 37.9354 83.8726L39.361 82.4074L40.0738 81.6946C40.3114 81.457 40.5094 81.1798 40.747 80.9422L42.0934 79.3978C42.529 78.883 42.925 78.3286 43.3606 77.8138C44.2318 76.7842 44.9446 75.5962 45.7366 74.4874C47.2018 72.1906 48.469 69.775 49.4986 67.2802L49.8946 66.3298L50.251 65.3794C50.4886 64.7458 50.6866 64.1122 50.8846 63.439C51.241 62.1718 51.5578 60.865 51.7162 59.479Z" fill="#000001"/>
<path d="M71.2005 42.6094C71.2401 43.1638 71.2401 43.7182 71.1609 44.2726C71.1213 44.827 71.0421 45.3814 70.9233 45.9358C70.8045 46.4902 70.6857 47.005 70.4877 47.5594C70.3293 48.1138 70.0917 48.6286 69.8541 49.1038C69.8145 48.5494 69.8145 47.995 69.8937 47.401C69.9333 46.8466 70.0521 46.2922 70.1313 45.7378C70.2501 45.1834 70.3689 44.6686 70.5669 44.1538C70.7253 43.639 70.9629 43.1242 71.2005 42.6094Z" fill="#EA8383"/>
<path d="M86.289 53.6975C85.9326 54.1331 85.5366 54.5291 85.101 54.9251C84.705 55.2815 84.2694 55.6379 83.7942 55.9547C83.3586 56.2715 82.8834 56.5883 82.3686 56.8655C81.8934 57.1427 81.3786 57.3803 80.8242 57.5783C81.1806 57.1427 81.5766 56.7071 82.0122 56.3507C82.4082 55.9943 82.8438 55.6379 83.319 55.3211C83.7546 55.0043 84.2298 54.6875 84.7446 54.4103C85.2594 54.1331 85.7742 53.8955 86.289 53.6975Z" fill="#EA8383"/>
<path d="M85.7344 70.0522C86.368 69.9334 87.0016 69.8938 87.6352 69.8938C88.2688 69.8938 88.9024 69.8938 89.4964 69.9334C90.0904 69.973 90.724 70.0522 91.3576 70.171C91.9912 70.2502 92.6248 70.4086 93.2188 70.6066C92.5852 70.7254 91.9516 70.765 91.318 70.765C90.6844 70.765 90.0508 70.765 89.4172 70.7254C88.7836 70.6858 88.1896 70.6066 87.556 70.4878C86.962 70.369 86.368 70.2502 85.7344 70.0522Z" fill="#EA8383"/>
<path d="M75.4766 119.394C75.4766 119.394 76.1894 126.601 77.2982 128.304C78.407 130.007 101.296 144.936 106.879 144.936C112.463 144.936 159.231 88.0308 159.231 84.744C159.231 81.4572 158.161 75.834 158.161 75.834L75.4766 119.394Z" fill="#E1E374"/>
<path d="M75.4766 119.394C75.4766 119.394 116.185 58.8457 122.799 55.6777C129.412 52.5097 159.072 69.5773 158.122 75.8737C157.171 82.1701 113.057 137.372 106.404 138.956C99.7514 140.54 75.4766 123.473 75.4766 119.394Z" fill="#E1E374"/>
<path d="M75.4766 119.394C76.427 120.622 77.4962 121.77 78.5654 122.919C79.6346 124.067 80.7434 125.136 81.8918 126.205C84.1886 128.304 86.6438 130.205 89.2574 131.908C90.5642 132.739 91.9106 133.571 93.257 134.284C94.643 134.997 96.029 135.67 97.4942 136.224C100.385 137.373 103.395 138.165 106.444 138.6L106.167 138.679C110.839 133.967 115.473 129.215 120.027 124.384C124.581 119.553 129.095 114.682 133.491 109.692C137.886 104.703 142.203 99.6733 146.281 94.4461C148.301 91.8325 150.321 89.1793 152.221 86.4469C154.122 83.7145 155.825 80.8633 157.33 77.8933C155.944 80.9029 154.32 83.8333 152.459 86.5657L151.073 88.6249L149.647 90.6841C148.657 92.0305 147.707 93.3769 146.677 94.6837C142.638 99.9901 138.401 105.099 134.005 110.088C129.61 115.078 125.095 120.028 120.541 124.859C115.987 129.69 111.354 134.442 106.602 139.115L106.483 139.234L106.325 139.194C103.197 138.759 100.147 137.887 97.2566 136.66C95.831 136.066 94.4054 135.393 93.0194 134.64C91.6334 133.888 90.287 133.056 88.9802 132.185C86.3666 130.443 83.951 128.463 81.6938 126.285C79.4366 124.225 77.3774 121.889 75.4766 119.394Z" fill="#F2EBEB"/>
<path d="M83.5962 113.81C83.5962 113.81 105.178 129.967 106.881 129.73C108.584 129.492 147.907 81.7739 147.669 80.3087C147.431 78.8435 122.087 63.5183 119.672 63.9539C117.256 64.3895 82.329 112.86 83.5962 113.81Z" fill="#000001"/>
<path d="M124.699 59.4792C124.699 59.4792 123.036 59.4 123.273 60.984C123.511 62.568 125.253 62.6472 126.045 61.9344C126.837 61.2216 125.768 59.1624 124.699 59.4792Z" fill="#E1E374"/>
<path d="M91.7517 123.077C91.7517 123.077 89.0589 122.958 89.4153 125.532C89.7717 128.106 92.6229 128.225 93.9297 127.076C95.2365 125.928 93.4545 122.562 91.7517 123.077Z" fill="#F2EBEB"/>
<path d="M84.7828 120.938C84.7828 120.938 86.3668 119.79 86.3668 119.434C86.3668 119.077 83.9908 118.087 83.5948 118.285C83.1988 118.483 84.7828 120.938 84.7828 120.938Z" fill="#F2EBEB"/>
<path d="M99.79 131.67C99.79 131.67 101.136 129.73 101.849 130.086C102.562 130.442 104.463 133.373 103.631 133.452C102.8 133.531 99.5128 132.026 99.79 131.67Z" fill="#F2EBEB"/>
<path d="M102.723 91.5552C104.069 91.5948 105.415 91.6344 106.643 91.278C106.92 91.1988 107.197 91.08 107.435 90.882C107.554 90.8028 107.633 90.684 107.673 90.5652C107.712 90.5256 107.712 90.4464 107.712 90.4068C107.712 90.3276 107.712 90.4068 107.752 90.4464C107.791 90.486 107.712 90.4464 107.673 90.4464C107.593 90.4464 107.554 90.486 107.475 90.486C107.316 90.5256 107.197 90.6048 107.039 90.684C106.762 90.8424 106.485 91.0008 106.247 91.1988C105.732 91.5552 105.336 91.9908 105.019 92.5452C104.98 92.6244 104.94 92.7432 104.94 92.862C104.94 92.9412 104.98 93.0204 105.059 93.06C105.178 93.1392 105.257 93.2184 105.415 93.258C105.534 93.3372 105.693 93.3768 105.811 93.4164C106.405 93.5748 107.039 93.6936 107.673 93.654C107.989 93.654 108.306 93.6144 108.623 93.5748C108.9 93.5352 109.177 93.456 109.415 93.2976C109.455 93.258 109.494 93.2184 109.534 93.1788C109.534 93.1788 109.534 93.1788 109.534 93.1392C109.534 93.0996 109.494 93.0996 109.494 93.06C109.494 93.0204 109.217 92.9808 108.94 93.0996C108.385 93.2976 107.91 93.6936 107.593 94.1688C107.435 94.3668 107.395 94.5648 107.435 94.8024C107.514 95.0004 107.712 95.1984 107.91 95.2776C108.187 95.3964 108.504 95.4756 108.781 95.5548C109.098 95.634 109.415 95.6736 109.732 95.6736C110.049 95.7132 110.326 95.6736 110.643 95.5944C110.92 95.5548 111.157 95.436 111.316 95.238C111.355 95.1588 111.355 95.1588 111.276 95.0796C111.197 95.0004 111.078 94.9608 110.959 94.9212C110.682 94.842 110.365 94.8816 110.088 94.9608C109.811 95.04 109.573 95.238 109.455 95.4756C109.375 95.7528 109.375 96.0696 109.534 96.3468C109.811 96.9408 110.207 97.4556 110.682 97.9308C110.128 97.5348 109.692 97.02 109.336 96.426C109.138 96.1092 109.098 95.7132 109.177 95.3568C109.296 95.0004 109.613 94.6836 109.969 94.5648C110.326 94.4064 110.682 94.3668 111.078 94.446C111.276 94.4856 111.474 94.5648 111.633 94.6836C111.751 94.7628 111.831 94.8816 111.831 95.04C111.87 95.1588 111.831 95.3172 111.791 95.436C111.553 95.7924 111.197 96.03 110.801 96.1092C110.445 96.1884 110.088 96.2676 109.732 96.228C109.375 96.228 109.019 96.1884 108.663 96.1488C108.306 96.0696 107.95 95.9904 107.633 95.8716C107.435 95.7924 107.277 95.6736 107.118 95.5548C106.92 95.3964 106.801 95.1984 106.722 95.0004C106.683 94.7628 106.683 94.5252 106.722 94.3272C106.762 94.1292 106.841 93.9312 106.96 93.7728C107.395 93.1392 107.989 92.664 108.702 92.3868C108.9 92.3076 109.098 92.268 109.296 92.268C109.573 92.268 109.811 92.3472 110.049 92.5452C110.167 92.6244 110.247 92.7432 110.286 92.9016C110.365 93.06 110.365 93.2184 110.326 93.3372C110.247 93.6144 110.088 93.852 109.851 93.9708C109.534 94.1688 109.138 94.2876 108.781 94.3668C108.425 94.446 108.069 94.446 107.712 94.446C106.999 94.446 106.287 94.3668 105.613 94.1292C105.257 94.0104 104.901 93.8124 104.623 93.5748C104.425 93.4164 104.307 93.1392 104.307 92.9016C104.307 92.664 104.346 92.466 104.465 92.268C104.861 91.6344 105.376 91.1196 105.97 90.7236C106.247 90.5256 106.564 90.3672 106.881 90.2088C107.039 90.1296 107.197 90.0504 107.395 90.0108C107.475 89.9712 107.593 89.9712 107.712 89.9712C107.791 89.9712 107.831 89.9712 107.91 89.9712H108.029C108.069 89.9712 108.108 90.0108 108.148 90.0108C108.306 90.1296 108.385 90.288 108.346 90.486C108.346 90.6048 108.306 90.7236 108.267 90.8028C108.187 91.0008 108.029 91.1592 107.871 91.278C107.593 91.476 107.237 91.6344 106.881 91.7136C106.207 91.8324 105.534 91.872 104.861 91.8324C104.029 91.7532 103.356 91.674 102.723 91.5552Z" fill="#F2EBEB"/>
<path d="M124.817 77.1804C124.817 77.1804 117.531 76.824 118.561 83.952C119.59 91.08 127.233 91.4364 130.718 88.2288C134.203 85.0212 129.49 75.7548 124.817 77.1804Z" fill="#E1E374"/>
<path d="M122.76 81.8533C122.8 82.8037 122.8 83.7145 122.879 84.6253C122.879 84.7441 122.919 84.8629 122.919 84.9421C122.919 85.0213 122.958 85.0609 122.958 85.1401C122.919 85.1005 122.879 85.0609 122.84 85.0609C122.8 85.0609 122.8 85.0609 122.76 85.0609H122.8L122.919 85.0213L123.236 84.9421L124.582 84.6253C125.493 84.4273 126.364 84.1897 127.314 84.0313C128.225 83.8333 129.176 83.7145 130.086 83.6353C129.215 84.0313 128.344 84.3481 127.473 84.6253C126.602 84.9025 125.691 85.1401 124.78 85.3777C124.344 85.4569 123.869 85.5757 123.394 85.6549L123.038 85.6945H122.958H122.84H122.8H122.76C122.721 85.6945 122.681 85.6945 122.642 85.6549C122.523 85.6153 122.444 85.5361 122.404 85.4569C122.325 85.2985 122.285 85.1401 122.285 84.9817C122.285 84.8629 122.285 84.7441 122.285 84.6253C122.325 83.6749 122.483 82.7641 122.76 81.8533Z" fill="#F2EBEB"/>
<path d="M165.765 170.201C165.765 170.201 157.963 134.878 154.835 118.246C152.657 106.603 149.133 98.9604 149.133 98.9604L116.819 136.541C116.819 136.541 116.146 135.274 117.334 143.669C118.522 152.064 126.204 165.053 126.204 165.053L165.765 170.201Z" fill="#A04040"/>
<path d="M130.086 63.9144C130.086 63.9144 143.59 72.3888 143.194 71.4384C142.798 70.488 127.988 60.4296 130.086 63.9144Z" fill="#F2EBEB"/>
<path d="M137.569 129.73C137.569 129.73 132.975 111.989 131.945 107.95C130.916 103.911 119.036 92.5849 116.422 94.0501C113.809 95.5153 114.442 102.445 119.432 111.83C119.432 111.83 111.512 133.214 119.63 149.846C127.748 166.478 137.569 129.73 137.569 129.73Z" fill="#A04040"/>
<path d="M119.512 94.8816C122.521 96.6636 125.333 98.802 127.788 101.297C129.055 102.564 130.164 103.95 131.075 105.415C131.273 105.811 131.511 106.207 131.709 106.603L132.263 107.831L132.699 109.058C132.857 109.494 132.976 109.89 133.095 110.326C134.085 113.692 134.837 117.097 135.51 120.503C136.183 123.908 136.777 127.354 137.253 130.799L134.916 120.622C134.52 118.919 134.124 117.256 133.689 115.553C133.253 113.85 132.817 112.187 132.342 110.524C132.223 110.128 132.105 109.692 131.946 109.296L131.55 108.068L131.075 106.92C130.877 106.524 130.679 106.168 130.481 105.811C129.57 104.346 128.541 102.96 127.353 101.732C126.165 100.465 124.937 99.2772 123.591 98.1288C122.323 96.9804 120.937 95.9112 119.512 94.8816Z" fill="#000001"/>
<path d="M161.527 70.2899C161.884 69.4583 162.28 68.6663 162.795 67.8743C163.27 67.1219 163.785 66.3695 164.379 65.6963C164.973 64.9835 165.606 64.3499 166.279 63.7559C166.953 63.1619 167.745 62.6867 168.576 62.3303C167.903 62.9243 167.309 63.5579 166.675 64.2311C166.517 64.3895 166.398 64.5479 166.24 64.7063L165.804 65.2211C165.527 65.5379 165.21 65.8943 164.933 66.2111C164.339 66.8843 163.785 67.5575 163.23 68.2307C162.676 68.9039 162.161 69.6167 161.527 70.2899Z" fill="#EA8383"/>
<path d="M131.945 50.6088C132.262 49.8564 132.619 49.104 133.015 48.3912C133.411 47.6784 133.846 46.9656 134.321 46.2924C134.797 45.6192 135.272 44.946 135.826 44.352C136.341 43.7184 136.935 43.1244 137.608 42.6492C137.173 43.362 136.777 44.0352 136.341 44.748C135.905 45.4608 135.47 46.134 134.995 46.8072C134.519 47.4804 134.044 48.1536 133.569 48.7872C133.015 49.3812 132.5 49.9752 131.945 50.6088Z" fill="#EA8383"/>
<path d="M142.082 38.1744C142.24 37.7388 142.438 37.3428 142.716 37.026C142.993 36.6696 143.31 36.3528 143.666 36.1152C144.022 35.838 144.418 35.64 144.854 35.4816C145.29 35.3232 145.725 35.2836 146.2 35.3628C145.804 35.6004 145.488 35.838 145.131 36.036L144.141 36.7488C143.468 37.224 142.795 37.6992 142.082 38.1744Z" fill="#EA8383"/>
</svg>
