<svg width="22" height="22" viewBox="0 0 22 22" fill="none" xmlns="http://www.w3.org/2000/svg">
<path d="M20.6872 7.49061C20.3596 7.17769 20.5112 6.33182 20.4916 5.88199C20.3743 3.61329 18.9759 1.90199 16.7121 1.52061C13.1428 1.56951 9.38282 1.28103 5.82821 1.46683C3.59862 1.58418 1.87754 3.02167 1.51084 5.24636C1.55484 8.80587 1.28103 12.5365 1.45705 16.0862C1.58418 18.6141 3.29548 20.3596 5.82821 20.5014C6.30737 20.5258 7.1728 20.4134 7.58351 20.5307C8.26803 20.7263 8.19958 21.8802 7.43194 21.9633C6.51273 22.0611 4.98722 21.9878 4.10712 21.7238C1.86776 21.0441 0.205356 18.971 0 16.6387V5.28548C0.268919 2.49361 2.52295 0.254251 5.3197 0H16.6241C19.3426 0.210246 21.7482 2.55228 21.9536 5.28548C21.9829 5.67174 22.0122 6.8501 21.934 7.18747C21.8118 7.71553 21.0686 7.84754 20.6872 7.49061Z" fill="#A6A6A6"/>
<path d="M16.4378 18.6681H5.54906C1.51039 17.7636 3.37327 12.4439 6.80076 12.0918C9.47528 12.219 12.3747 11.8816 15.0199 12.0772C18.5158 12.3363 20.4716 17.6805 16.4378 18.6681Z" fill="#A6A6A6"/>
<path d="M21.0258 9.89596C21.4903 9.80795 21.8228 10.0133 21.9499 10.4582C21.8521 12.4776 22.0868 14.6289 21.9499 16.6336C21.769 19.3619 19.3487 21.7822 16.6204 21.9631C14.7625 22.0853 12.7676 21.8653 10.8998 21.9631C10.0833 21.8849 9.98548 20.7701 10.7385 20.5158C12.5133 20.4034 14.3566 20.594 16.1168 20.4963C17.5788 20.418 18.8598 19.802 19.6959 18.5894C21.1383 16.4918 20.2044 12.9421 20.4831 10.5023C20.5173 10.2187 20.7276 9.94975 21.0209 9.89596H21.0258Z" fill="#A6A6A6"/>
<path d="M14.4715 8.10205C13.6208 10.8352 9.95857 11.5149 8.13481 9.30974C6.33061 7.12905 7.6312 3.62822 10.4573 3.3104C13.1856 3.00237 15.2929 5.45687 14.4715 8.10205Z" fill="#A6A6A6"/>
</svg>
