<svg width="18" height="24" viewBox="0 0 18 24" fill="none" xmlns="http://www.w3.org/2000/svg">
<path d="M17.5076 22.9996V21.207C17.5076 18.9088 15.5772 17.0703 13.279 17.0703C10.5213 19.3685 7.76347 19.3685 5.00569 17.0703C2.70753 17.0703 0.960938 18.9088 0.960938 21.207V22.9996H17.5076Z" fill="#92D3F5"/>
<path d="M3.72182 11.5552C2.80256 11.5552 2.34293 6.03967 3.72182 4.20114C6.47961 0.524098 11.9952 0.524098 14.753 4.20114C16.1319 6.03967 15.6722 11.5552 14.753 11.5552" fill="#F1B31C"/>
<path d="M4.17578 10.6354C4.17578 14.3124 6.38201 16.105 9.13979 16.105C11.8976 16.105 14.2877 14.3124 14.2877 10.6354C14.2877 6.95832 12.9088 6.03906 12.9088 6.03906C9.23172 7.87759 6.47394 6.95832 5.55467 6.03906C5.55467 6.03906 4.17578 6.95832 4.17578 10.6354Z" fill="#FCEA2B"/>
<path d="M3.72182 11.5552C2.80256 11.5552 2.34293 6.03967 3.72182 4.20114C6.47961 0.524098 11.9952 0.524098 14.753 4.20114C16.1319 6.03967 15.6722 11.5552 14.753 11.5552" stroke="black" stroke-linecap="round" stroke-linejoin="round"/>
<path d="M17.5076 22.5859V21.1611C17.5076 18.8629 15.5772 17.0244 13.279 17.0244C10.5213 19.3226 7.76347 19.3226 5.00569 17.0244C2.70753 17.0244 0.960938 18.8629 0.960938 21.1611V22.5859" stroke="black" stroke-linecap="round" stroke-linejoin="round"/>
<path d="M11.9909 10.1771C11.9909 10.6827 11.5772 11.0963 11.0716 11.0963C10.566 11.0963 10.1523 10.6827 10.1523 10.1771C10.1523 9.67148 10.566 9.25781 11.0716 9.25781C11.5772 9.25781 11.9909 9.67148 11.9909 10.1771Z" fill="black"/>
<path d="M8.31509 10.1771C8.31509 10.6827 7.90142 11.0963 7.39582 11.0963C6.89023 11.0963 6.47656 10.6827 6.47656 10.1771C6.47656 9.67148 6.89023 9.25781 7.39582 9.25781C7.90142 9.25781 8.31509 9.67148 8.31509 10.1771Z" fill="black"/>
<path d="M4.17578 10.6363C4.17578 14.3134 6.38201 16.106 9.13979 16.106C11.8976 16.106 14.2877 14.3134 14.2877 10.6363C14.2877 6.9593 12.9088 6.04004 12.9088 6.04004C9.23172 7.87856 6.47394 6.9593 5.55467 6.04004C5.55467 6.04004 4.17578 6.9593 4.17578 10.6363Z" stroke="black" stroke-linejoin="round"/>
<path d="M7.76172 13.0264C8.63502 13.486 9.64621 13.486 10.5195 13.0264" stroke="black" stroke-linecap="round" stroke-linejoin="round"/>
</svg>
