<svg width="14" height="16" viewBox="0 0 14 16" fill="none" xmlns="http://www.w3.org/2000/svg">
<g clip-path="url(#clip0_1781_4486)">
<path d="M11.3766 8.5003C11.3991 10.9216 13.4999 11.7274 13.5232 11.7376C13.5055 11.7944 13.1875 12.8859 12.4164 14.0133C11.7497 14.988 11.0579 15.9591 9.96797 15.9792C8.89703 15.9989 8.55266 15.3439 7.32827 15.3439C6.10425 15.3439 5.72165 15.9591 4.70788 15.9989C3.65584 16.0388 2.8547 14.945 2.18256 13.9738C0.809062 11.9874 -0.240575 8.36062 1.16882 5.91249C1.86898 4.69673 3.12022 3.92687 4.47832 3.90713C5.51139 3.88741 6.48646 4.6024 7.11802 4.6024C7.74918 4.6024 8.9341 3.74257 10.1798 3.86884C10.7013 3.89056 12.1651 4.07957 13.1051 5.45595C13.0293 5.50291 11.3584 6.476 11.3766 8.5003ZM9.36389 2.55464C9.92242 1.87831 10.2983 0.936799 10.1958 0C9.3907 0.0323694 8.41718 0.536681 7.83971 1.21264C7.32219 1.81123 6.86895 2.76931 6.99124 3.68757C7.8886 3.75702 8.80532 3.2314 9.36389 2.55464Z" fill="black"/>
</g>
<defs>
<clipPath id="clip0_1781_4486">
<rect width="13.0256" height="16" fill="white" transform="translate(0.5)"/>
</clipPath>
</defs>
</svg>
