<svg width="20" height="21" viewBox="0 0 20 21" fill="none" xmlns="http://www.w3.org/2000/svg">
<path d="M16.25 3.15625H14.2188V2.375C14.2188 2.25068 14.1694 2.13145 14.0815 2.04354C13.9935 1.95564 13.8743 1.90625 13.75 1.90625C13.6257 1.90625 13.5065 1.95564 13.4185 2.04354C13.3306 2.13145 13.2812 2.25068 13.2812 2.375V3.15625H6.71875V2.375C6.71875 2.25068 6.66936 2.13145 6.58146 2.04354C6.49355 1.95564 6.37432 1.90625 6.25 1.90625C6.12568 1.90625 6.00645 1.95564 5.91854 2.04354C5.83064 2.13145 5.78125 2.25068 5.78125 2.375V3.15625H3.75C3.45992 3.15625 3.18172 3.27148 2.9766 3.4766C2.77148 3.68172 2.65625 3.95992 2.65625 4.25V16.75C2.65625 17.0401 2.77148 17.3183 2.9766 17.5234C3.18172 17.7285 3.45992 17.8438 3.75 17.8438H16.25C16.5401 17.8438 16.8183 17.7285 17.0234 17.5234C17.2285 17.3183 17.3438 17.0401 17.3438 16.75V4.25C17.3438 3.95992 17.2285 3.68172 17.0234 3.4766C16.8183 3.27148 16.5401 3.15625 16.25 3.15625ZM3.75 4.09375H5.78125V4.875C5.78125 4.99932 5.83064 5.11855 5.91854 5.20646C6.00645 5.29436 6.12568 5.34375 6.25 5.34375C6.37432 5.34375 6.49355 5.29436 6.58146 5.20646C6.66936 5.11855 6.71875 4.99932 6.71875 4.875V4.09375H13.2812V4.875C13.2812 4.99932 13.3306 5.11855 13.4185 5.20646C13.5065 5.29436 13.6257 5.34375 13.75 5.34375C13.8743 5.34375 13.9935 5.29436 14.0815 5.20646C14.1694 5.11855 14.2188 4.99932 14.2188 4.875V4.09375H16.25C16.2914 4.09375 16.3312 4.11021 16.3605 4.13951C16.3898 4.16882 16.4062 4.20856 16.4062 4.25V6.90625H3.59375V4.25C3.59375 4.20856 3.61021 4.16882 3.63951 4.13951C3.66882 4.11021 3.70856 4.09375 3.75 4.09375ZM16.25 16.9062H3.75C3.70856 16.9062 3.66882 16.8898 3.63951 16.8605C3.61021 16.8312 3.59375 16.7914 3.59375 16.75V7.84375H16.4062V16.75C16.4062 16.7914 16.3898 16.8312 16.3605 16.8605C16.3312 16.8898 16.2914 16.9062 16.25 16.9062ZM10.7812 10.8125C10.7812 10.967 10.7354 11.1181 10.6496 11.2465C10.5637 11.375 10.4417 11.4752 10.299 11.5343C10.1562 11.5934 9.99913 11.6089 9.84759 11.5787C9.69604 11.5486 9.55683 11.4742 9.44757 11.3649C9.33831 11.2557 9.26391 11.1165 9.23376 10.9649C9.20362 10.8134 9.21909 10.6563 9.27822 10.5135C9.33735 10.3708 9.43748 10.2488 9.56596 10.1629C9.69444 10.0771 9.84548 10.0312 10 10.0312C10.2072 10.0312 10.4059 10.1136 10.5524 10.2601C10.6989 10.4066 10.7812 10.6053 10.7812 10.8125ZM14.2188 10.8125C14.2188 10.967 14.1729 11.1181 14.0871 11.2465C14.0012 11.375 13.8792 11.4752 13.7365 11.5343C13.5937 11.5934 13.4366 11.6089 13.2851 11.5787C13.1335 11.5486 12.9943 11.4742 12.8851 11.3649C12.7758 11.2557 12.7014 11.1165 12.6713 10.9649C12.6411 10.8134 12.6566 10.6563 12.7157 10.5135C12.7748 10.3708 12.875 10.2488 13.0035 10.1629C13.1319 10.0771 13.283 10.0312 13.4375 10.0312C13.6447 10.0312 13.8434 10.1136 13.9899 10.2601C14.1364 10.4066 14.2188 10.6053 14.2188 10.8125ZM7.34375 13.9375C7.34375 14.092 7.29793 14.2431 7.21209 14.3715C7.12624 14.5 7.00423 14.6002 6.86147 14.6593C6.71872 14.7184 6.56163 14.7339 6.41009 14.7037C6.25854 14.6736 6.11933 14.5992 6.01007 14.4899C5.90081 14.3807 5.82641 14.2415 5.79626 14.0899C5.76612 13.9384 5.78159 13.7813 5.84072 13.6385C5.89985 13.4958 5.99998 13.3738 6.12846 13.2879C6.25694 13.2021 6.40798 13.1562 6.5625 13.1562C6.7697 13.1562 6.96841 13.2386 7.11493 13.3851C7.26144 13.5316 7.34375 13.7303 7.34375 13.9375ZM10.7812 13.9375C10.7812 14.092 10.7354 14.2431 10.6496 14.3715C10.5637 14.5 10.4417 14.6002 10.299 14.6593C10.1562 14.7184 9.99913 14.7339 9.84759 14.7037C9.69604 14.6736 9.55683 14.5992 9.44757 14.4899C9.33831 14.3807 9.26391 14.2415 9.23376 14.0899C9.20362 13.9384 9.21909 13.7813 9.27822 13.6385C9.33735 13.4958 9.43748 13.3738 9.56596 13.2879C9.69444 13.2021 9.84548 13.1562 10 13.1562C10.2072 13.1562 10.4059 13.2386 10.5524 13.3851C10.6989 13.5316 10.7812 13.7303 10.7812 13.9375ZM14.2188 13.9375C14.2188 14.092 14.1729 14.2431 14.0871 14.3715C14.0012 14.5 13.8792 14.6002 13.7365 14.6593C13.5937 14.7184 13.4366 14.7339 13.2851 14.7037C13.1335 14.6736 12.9943 14.5992 12.8851 14.4899C12.7758 14.3807 12.7014 14.2415 12.6713 14.0899C12.6411 13.9384 12.6566 13.7813 12.7157 13.6385C12.7748 13.4958 12.875 13.3738 13.0035 13.2879C13.1319 13.2021 13.283 13.1562 13.4375 13.1562C13.6447 13.1562 13.8434 13.2386 13.9899 13.3851C14.1364 13.5316 14.2188 13.7303 14.2188 13.9375Z" fill="#8F94A3"/>
</svg>
