<svg width="16" height="16" viewBox="0 0 16 16" fill="none" xmlns="http://www.w3.org/2000/svg">
<path d="M12.1167 6.82014C12.1177 6.74177 12.1031 6.66399 12.0739 6.5913C12.0446 6.51861 12.0011 6.45245 11.9461 6.39668C11.891 6.34091 11.8254 6.29663 11.7531 6.26641C11.6808 6.23619 11.6032 6.22063 11.5249 6.22064H4.49997C4.34097 6.22064 4.18849 6.2838 4.07606 6.39623C3.96363 6.50865 3.90047 6.66114 3.90047 6.82014C3.90047 6.97913 3.96363 7.13162 4.07606 7.24404C4.18849 7.35647 4.34097 7.41963 4.49997 7.41963H11.5249C11.6032 7.41964 11.6808 7.40408 11.7531 7.37386C11.8254 7.34364 11.891 7.29936 11.9461 7.24359C12.0011 7.18782 12.0446 7.12166 12.0739 7.04897C12.1031 6.97628 12.1177 6.8985 12.1167 6.82014ZM9.64182 10.5708C9.64284 10.4931 9.62854 10.416 9.59973 10.3438C9.57092 10.2716 9.52818 10.2058 9.47394 10.1501C9.41969 10.0944 9.35501 10.05 9.2836 10.0193C9.21218 9.98865 9.13542 9.97235 9.0577 9.97135H4.5384C4.3794 9.97135 4.22692 10.0345 4.11449 10.1469C4.00206 10.2594 3.9389 10.4118 3.9389 10.5708C3.9389 10.7298 4.00206 10.8823 4.11449 10.9948C4.22692 11.1072 4.3794 11.1703 4.5384 11.1703H9.0577C9.13542 11.1693 9.21218 11.153 9.2836 11.1224C9.35501 11.0917 9.41969 11.0473 9.47394 10.9916C9.52818 10.9359 9.57092 10.8701 9.59973 10.7979C9.62854 10.7257 9.64284 10.6486 9.64182 10.5708ZM15.0219 5.7518V11.4317C15.028 11.983 14.9252 12.5302 14.7193 13.0417C14.5135 13.5533 14.2086 14.0191 13.8223 14.4126C13.436 14.806 12.9758 15.1193 12.4681 15.3345C11.9604 15.5497 11.4153 15.6626 10.8639 15.6666H5.13021C4.01857 15.6645 2.95314 15.2215 2.16781 14.4347C1.38248 13.648 0.941405 12.5817 0.941406 11.4701V5.7518C0.941155 4.72986 1.3145 3.74309 1.99115 2.97725C2.6678 2.21142 3.60107 1.71937 4.61526 1.59374V2.31621C4.61526 2.46909 4.67599 2.61571 4.78409 2.72381C4.8922 2.83192 5.03882 2.89265 5.1917 2.89265C5.34458 2.89265 5.4912 2.83192 5.5993 2.72381C5.70741 2.61571 5.76814 2.46909 5.76814 2.31621V1.54762H10.226V2.31621C10.226 2.46909 10.2867 2.61571 10.3948 2.72381C10.5029 2.83192 10.6495 2.89265 10.8024 2.89265C10.9553 2.89265 11.1019 2.83192 11.21 2.72381C11.3181 2.61571 11.3788 2.46909 11.3788 2.31621V1.59374C12.3937 1.71778 13.3279 2.20936 14.0049 2.97555C14.6818 3.74173 15.0546 4.7294 15.0527 5.7518H15.0219ZM5.13021 1.55531C4.95875 1.54379 4.78672 1.54379 4.61526 1.55531V0.909693C4.61526 0.756811 4.67599 0.610191 4.78409 0.502088C4.8922 0.393984 5.03882 0.333252 5.1917 0.333252C5.34458 0.333252 5.4912 0.393984 5.5993 0.502088C5.70741 0.610191 5.76814 0.756811 5.76814 0.909693V1.55531H5.13021ZM10.8639 1.55531H10.226V0.909693C10.226 0.756811 10.2867 0.610191 10.3948 0.502088C10.5029 0.393984 10.6495 0.333252 10.8024 0.333252C10.9553 0.333252 11.1019 0.393984 11.21 0.502088C11.3181 0.610191 11.3788 0.756811 11.3788 0.909693V1.59374C11.2083 1.56918 11.0362 1.55634 10.8639 1.55531Z" fill="#2A2D36"/>
</svg>
