<svg width="14" height="14" viewBox="0 0 14 14" fill="none" xmlns="http://www.w3.org/2000/svg">
<path d="M9.44547 1.1665H4.55714C2.4338 1.1665 1.16797 2.43234 1.16797 4.55567V9.43817C1.16797 11.5673 2.4338 12.8332 4.55714 12.8332H9.43964C11.563 12.8332 12.8288 11.5673 12.8288 9.444V4.55567C12.8346 2.43234 11.5688 1.1665 9.44547 1.1665ZM9.78964 5.65817L6.48213 8.96567C6.40047 9.04734 6.28964 9.094 6.17297 9.094C6.0563 9.094 5.94547 9.04734 5.8638 8.96567L4.21297 7.31484C4.0438 7.14567 4.0438 6.86567 4.21297 6.6965C4.38214 6.52734 4.66214 6.52734 4.8313 6.6965L6.17297 8.03817L9.1713 5.03984C9.34047 4.87067 9.62047 4.87067 9.78964 5.03984C9.9588 5.209 9.9588 5.48317 9.78964 5.65817Z" fill="#E1E374"/>
</svg>
