<svg width="20" height="20" viewBox="0 0 20 20" fill="none" xmlns="http://www.w3.org/2000/svg">
<path d="M17.5 18.3335H2.5C2.15833 18.3335 1.875 18.0502 1.875 17.7085C1.875 17.3668 2.15833 17.0835 2.5 17.0835H17.5C17.8417 17.0835 18.125 17.3668 18.125 17.7085C18.125 18.0502 17.8417 18.3335 17.5 18.3335Z" fill="#E1E374"/>
<path d="M15.8495 2.90005C14.2328 1.28338 12.6495 1.24172 10.9912 2.90005L9.98283 3.90838C9.89949 3.99172 9.86616 4.12505 9.89949 4.24172C10.5328 6.45005 12.2995 8.21672 14.5078 8.85005C14.5412 8.85838 14.5745 8.86672 14.6078 8.86672C14.6995 8.86672 14.7828 8.83338 14.8495 8.76672L15.8495 7.75838C16.6745 6.94172 17.0745 6.15005 17.0745 5.35005C17.0828 4.52505 16.6828 3.72505 15.8495 2.90005Z" fill="#E1E374"/>
<path d="M13.007 9.60817C12.7653 9.4915 12.532 9.37484 12.307 9.2415C12.1236 9.13317 11.9486 9.0165 11.7736 8.8915C11.632 8.79984 11.4653 8.6665 11.307 8.53317C11.2903 8.52484 11.232 8.47484 11.1653 8.40817C10.8903 8.17484 10.582 7.87484 10.307 7.5415C10.282 7.52484 10.2403 7.4665 10.182 7.3915C10.0986 7.2915 9.95697 7.12484 9.83197 6.93317C9.73197 6.80817 9.6153 6.62484 9.50697 6.4415C9.37364 6.2165 9.25697 5.9915 9.14031 5.75817C8.98734 5.43039 8.55713 5.33301 8.30135 5.58879L3.6153 10.2748C3.50697 10.3832 3.40697 10.5915 3.38197 10.7332L2.93197 13.9248C2.84864 14.4915 3.00697 15.0248 3.35697 15.3832C3.65697 15.6748 4.07364 15.8332 4.52364 15.8332C4.62364 15.8332 4.72364 15.8248 4.82364 15.8082L8.02364 15.3582C8.17364 15.3332 8.38197 15.2332 8.48197 15.1248L13.1758 10.4311C13.4264 10.1804 13.3322 9.74912 13.007 9.60817Z" fill="#E1E374"/>
</svg>
