<svg width="13" height="13" viewBox="0 0 13 13" fill="none" xmlns="http://www.w3.org/2000/svg">
<path d="M12.6188 3.67346L9.82563 0.880337C9.74438 0.799076 9.64791 0.734616 9.54175 0.690637C9.43558 0.646659 9.32179 0.624023 9.20688 0.624023C9.09196 0.624023 8.97817 0.646659 8.87201 0.690637C8.76584 0.734616 8.66938 0.799076 8.58813 0.880337L0.881251 8.58784C0.799836 8.66897 0.735279 8.76541 0.6913 8.87161C0.64732 8.9778 0.624788 9.09165 0.625002 9.20659V11.9997C0.625002 12.2318 0.717189 12.4543 0.881283 12.6184C1.04538 12.7825 1.26794 12.8747 1.5 12.8747H4.29313C4.40807 12.8749 4.52191 12.8524 4.62811 12.8084C4.7343 12.7644 4.83074 12.6999 4.91188 12.6185L12.6188 4.91096C12.7 4.82971 12.7645 4.73325 12.8085 4.62708C12.8524 4.52091 12.8751 4.40713 12.8751 4.29221C12.8751 4.1773 12.8524 4.06351 12.8085 3.95734C12.7645 3.85118 12.7 3.75471 12.6188 3.67346ZM4.38125 12.0878C4.35792 12.1113 4.32623 12.1246 4.29313 12.1247H1.5C1.46685 12.1247 1.43506 12.1115 1.41161 12.0881C1.38817 12.0647 1.375 12.0329 1.375 11.9997V9.20659C1.37514 9.17349 1.3884 9.1418 1.41188 9.11846L7 3.52971L9.96938 6.49971L4.38125 12.0878ZM12.0881 4.38096L10.5 5.96909L7.53063 2.99971L9.11875 1.41096C9.13036 1.39934 9.14415 1.39012 9.15932 1.38383C9.1745 1.37754 9.19076 1.3743 9.20719 1.3743C9.22362 1.3743 9.23988 1.37754 9.25506 1.38383C9.27023 1.39012 9.28402 1.39934 9.29563 1.41096L12.0881 4.20409C12.0997 4.2157 12.109 4.22948 12.1153 4.24466C12.1215 4.25983 12.1248 4.2761 12.1248 4.29252C12.1248 4.30895 12.1215 4.32522 12.1153 4.34039C12.109 4.35557 12.0997 4.36935 12.0881 4.38096Z" fill="#8F94A3"/>
</svg>
