<svg width="20" height="21" viewBox="0 0 20 21" fill="none" xmlns="http://www.w3.org/2000/svg">
<path d="M17.5 4.40625H2.5C2.37568 4.40625 2.25645 4.45564 2.16854 4.54354C2.08064 4.63145 2.03125 4.75068 2.03125 4.875V15.5C2.03125 15.7901 2.14648 16.0683 2.3516 16.2734C2.55672 16.4785 2.83492 16.5938 3.125 16.5938H16.875C17.1651 16.5938 17.4433 16.4785 17.6484 16.2734C17.8535 16.0683 17.9688 15.7901 17.9688 15.5V4.875C17.9688 4.75068 17.9194 4.63145 17.8315 4.54354C17.7435 4.45564 17.6243 4.40625 17.5 4.40625ZM16.2953 5.34375L10 11.1141L3.70469 5.34375H16.2953ZM16.875 15.6562H3.125C3.08356 15.6562 3.04382 15.6398 3.01451 15.6105C2.98521 15.5812 2.96875 15.5414 2.96875 15.5V5.94062L9.6875 12.0953C9.77391 12.1744 9.88679 12.2182 10.0039 12.2182C10.121 12.2182 10.2339 12.1744 10.3203 12.0953L17.0312 5.94062V15.5C17.0312 15.5414 17.0148 15.5812 16.9855 15.6105C16.9562 15.6398 16.9164 15.6562 16.875 15.6562Z" fill="#1C1E29"/>
</svg>
