<svg width="13" height="13" viewBox="0 0 13 13" fill="none" xmlns="http://www.w3.org/2000/svg">
<path d="M12.375 7.99967V11.9997C12.375 12.0991 12.3355 12.1945 12.2652 12.2648C12.1948 12.3352 12.0995 12.3747 12 12.3747H1C0.900544 12.3747 0.805161 12.3352 0.734835 12.2648C0.664509 12.1945 0.625 12.0991 0.625 11.9997V7.99967C0.625 7.90021 0.664509 7.80483 0.734835 7.7345C0.805161 7.66418 0.900544 7.62467 1 7.62467C1.09946 7.62467 1.19484 7.66418 1.26517 7.7345C1.33549 7.80483 1.375 7.90021 1.375 7.99967V11.6247H11.625V7.99967C11.625 7.90021 11.6645 7.80483 11.7348 7.7345C11.8052 7.66418 11.9005 7.62467 12 7.62467C12.0995 7.62467 12.1948 7.66418 12.2652 7.7345C12.3355 7.80483 12.375 7.90021 12.375 7.99967ZM4.265 3.76467L6.125 1.9053V7.99967C6.125 8.09913 6.16451 8.19451 6.23484 8.26483C6.30516 8.33516 6.40054 8.37467 6.5 8.37467C6.59946 8.37467 6.69484 8.33516 6.76517 8.26483C6.83549 8.19451 6.875 8.09913 6.875 7.99967V1.9053L8.735 3.76467C8.80609 3.83091 8.90011 3.86697 8.99726 3.86526C9.09441 3.86354 9.1871 3.82419 9.25581 3.75548C9.32452 3.68677 9.36387 3.59408 9.36559 3.49693C9.3673 3.39978 9.33124 3.30576 9.265 3.23467L6.765 0.73467C6.69469 0.664445 6.59938 0.625 6.5 0.625C6.40062 0.625 6.30531 0.664445 6.235 0.73467L3.735 3.23467C3.66876 3.30576 3.6327 3.39978 3.63441 3.49693C3.63613 3.59408 3.67548 3.68677 3.74419 3.75548C3.8129 3.82419 3.90559 3.86354 4.00274 3.86526C4.09989 3.86697 4.19391 3.83091 4.265 3.76467Z" fill="#2A2D36"/>
</svg>
