<svg width="16" height="16" viewBox="0 0 16 16" fill="none" xmlns="http://www.w3.org/2000/svg">
<path d="M14.5357 6.69425H13.9987V6.66659H7.9987V9.33325H11.7664C11.2167 10.8856 9.7397 11.9999 7.9987 11.9999C5.7897 11.9999 3.9987 10.2089 3.9987 7.99992C3.9987 5.79092 5.7897 3.99992 7.9987 3.99992C9.01836 3.99992 9.94603 4.38459 10.6524 5.01292L12.538 3.12725C11.3474 2.01759 9.7547 1.33325 7.9987 1.33325C4.31703 1.33325 1.33203 4.31825 1.33203 7.99992C1.33203 11.6816 4.31703 14.6666 7.9987 14.6666C11.6804 14.6666 14.6654 11.6816 14.6654 7.99992C14.6654 7.55292 14.6194 7.11659 14.5357 6.69425Z" fill="#FFC107"/>
<path d="M2.10156 4.89692L4.2919 6.50325C4.88456 5.03592 6.3199 3.99992 7.99956 3.99992C9.01923 3.99992 9.9469 4.38458 10.6532 5.01292L12.5389 3.12725C11.3482 2.01759 9.75556 1.33325 7.99956 1.33325C5.4389 1.33325 3.21823 2.77892 2.10156 4.89692Z" fill="#FF3D00"/>
<path d="M8.0014 14.6667C9.7234 14.6667 11.2881 14.0077 12.4711 12.936L10.4077 11.19C9.71592 11.7161 8.87056 12.0007 8.0014 12C6.26741 12 4.79507 10.8943 4.24041 9.35132L2.06641 11.0263C3.16974 13.1853 5.41041 14.6667 8.0014 14.6667Z" fill="#4CAF50"/>
<path d="M14.537 6.69441H14V6.66675H8V9.33341H11.7677C11.5047 10.0722 11.0311 10.7178 10.4053 11.1904L10.4063 11.1897L12.4697 12.9357C12.3237 13.0684 14.6667 11.3334 14.6667 8.00008C14.6667 7.55308 14.6207 7.11675 14.537 6.69441Z" fill="#1976D2"/>
</svg>
