<svg width="18" height="18" viewBox="0 0 18 18" fill="none" xmlns="http://www.w3.org/2000/svg">
<path d="M13.1488 5.8275C13.0963 5.82 13.0437 5.82 12.9912 5.8275C11.8287 5.79 10.9062 4.8375 10.9062 3.6675C10.9062 2.475 11.8738 1.5 13.0738 1.5C14.2663 1.5 15.2413 2.4675 15.2413 3.6675C15.2338 4.8375 14.3113 5.79 13.1488 5.8275Z" fill="#E1E374"/>
<path d="M15.5917 11.0248C14.7517 11.5873 13.5742 11.7973 12.4867 11.6548C12.7717 11.0398 12.9217 10.3573 12.9292 9.63731C12.9292 8.88731 12.7642 8.17481 12.4492 7.55231C13.5592 7.40231 14.7367 7.61231 15.5842 8.17481C16.7692 8.95481 16.7692 10.2373 15.5917 11.0248Z" fill="#E1E374"/>
<path d="M4.83109 5.8275C4.88359 5.82 4.93609 5.82 4.98859 5.8275C6.15109 5.79 7.07359 4.8375 7.07359 3.6675C7.07359 2.4675 6.10609 1.5 4.90609 1.5C3.71359 1.5 2.74609 2.4675 2.74609 3.6675C2.74609 4.8375 3.66859 5.79 4.83109 5.8275Z" fill="#E1E374"/>
<path d="M4.91234 9.63746C4.91234 10.365 5.06984 11.055 5.35484 11.6775C4.29734 11.79 3.19484 11.565 2.38484 11.0325C1.19984 10.245 1.19984 8.96246 2.38484 8.17496C3.18734 7.63496 4.31984 7.41746 5.38484 7.53746C5.07734 8.16746 4.91234 8.87996 4.91234 9.63746Z" fill="#E1E374"/>
<path d="M9.09156 11.9025C9.03156 11.895 8.96406 11.895 8.89656 11.9025C7.51656 11.8575 6.41406 10.725 6.41406 9.33C6.42156 7.905 7.56906 6.75 9.00156 6.75C10.4266 6.75 11.5816 7.905 11.5816 9.33C11.5741 10.725 10.4791 11.8575 9.09156 11.9025Z" fill="#E1E374"/>
<path d="M6.65406 13.455C5.52156 14.2125 5.52156 15.4575 6.65406 16.2075C7.94406 17.07 10.0591 17.07 11.3491 16.2075C12.4816 15.45 12.4816 14.205 11.3491 13.455C10.0666 12.5925 7.95156 12.5925 6.65406 13.455Z" fill="#E1E374"/>
</svg>
