<svg width="42" height="42" viewBox="0 0 42 42" fill="none" xmlns="http://www.w3.org/2000/svg">
<path d="M35.1665 0H6.83353C3.05947 0 0 3.05949 0 6.83355V35.1665C0 38.9405 3.05947 42 6.83353 42H35.1665C38.9405 42 42 38.9405 42 35.1665V6.83355C42 3.05949 38.9405 0 35.1665 0Z" fill="#2A2D36"/>
<path d="M14.8728 8.6134H8.73828L14.8718 14.7479H21.0063L14.8728 8.6134Z" fill="#E1E374"/>
<path d="M8.73828 14.7479L14.8728 20.8824L14.8718 14.7479L8.73828 8.6134V14.7479Z" fill="#E1E374"/>
<path d="M27.3838 8.37476H21.0117L27.3838 14.7459H33.756L27.3838 8.37476Z" fill="#E1E374"/>
<path d="M21.0117 14.7459L27.3838 21.118V14.7459L21.0117 8.37476V14.7459Z" fill="#E1E374"/>
<path d="M27.3806 33.3882H33.5151L27.3816 27.2537H21.2461L27.3806 33.3882Z" fill="#E1E374"/>
<path d="M33.5173 27.2536L27.3828 21.1191L27.3838 27.2536L33.5173 33.3882V27.2536Z" fill="#E1E374"/>
<path d="M21.2472 33.6265H14.875L13.9729 32.7244L8.50391 27.2544H14.876L21.2472 33.6265Z" fill="#E1E374"/>
<path d="M21.2471 27.2546L14.875 20.8824V27.2546L21.2471 33.6267V27.2546Z" fill="#E1E374"/>
</svg>
