<svg width="76" height="61" viewBox="0 0 76 61" fill="none" xmlns="http://www.w3.org/2000/svg">
<path d="M0 8C0 3.58172 3.58172 0 8 0H68C72.4183 0 76 3.58172 76 8V53C76 57.4183 72.4183 61 68 61H8C3.58172 61 0 57.4183 0 53V8Z" fill="#1C1E29"/>
<path d="M47.7168 29.0717L61.0445 17.6335V40.3794L47.7168 29.0717ZM30.5431 31.0087L35.2233 35.022C35.9578 35.6384 36.9155 36.0108 37.9621 36.0108H37.9989H38.0271C39.0758 36.0108 40.0335 35.6363 40.7767 35.0155L40.7702 35.0198L45.4504 31.0066L59.6773 43.0762H16.3227L30.5431 31.0087ZM16.3032 14.9216H59.7033L38.857 32.8067C38.6236 32.9916 38.3328 33.0914 38.0336 33.0892H38.0033H37.9751C37.6749 33.0913 37.3832 32.9907 37.1495 32.8045L37.1517 32.8067L16.3032 14.9216ZM14.9576 17.6314L28.2832 29.0696L14.9576 40.3708V17.6314ZM61.7596 12.4067C61.2396 12.1498 60.6285 12 59.9807 12H16.028C15.4003 12.0025 14.7814 12.1467 14.2188 12.4217L14.2426 12.411C13.5706 12.7395 13.0047 13.2466 12.6085 13.8754C12.2124 14.5043 12.0016 15.2298 12 15.9704V42.0232C12.0011 43.0775 12.4257 44.0884 13.1804 44.834C13.9351 45.5795 14.9585 45.9989 16.0258 46H59.9742C61.0415 45.9989 62.0648 45.5795 62.8196 44.834C63.5743 44.0884 63.9989 43.0775 64 42.0232V15.9704C64 14.4144 63.0921 13.0659 61.7704 12.4174L61.7466 12.4067H61.7596Z" fill="white"/>
</svg>
