<svg width="8" height="14" viewBox="0 0 8 14" fill="none" xmlns="http://www.w3.org/2000/svg">
<path d="M7.26492 9.73504C7.33515 9.80535 7.37459 9.90066 7.37459 10C7.37459 10.0994 7.33515 10.1947 7.26492 10.265L4.26492 13.265C4.19461 13.3353 4.0993 13.3747 3.99992 13.3747C3.90055 13.3747 3.80524 13.3353 3.73492 13.265L0.734924 10.265C0.668684 10.1939 0.632622 10.0999 0.634336 10.0028C0.63605 9.90562 0.675406 9.81293 0.744113 9.74423C0.812819 9.67552 0.905512 9.63616 1.00266 9.63445C1.09981 9.63274 1.19384 9.6688 1.26492 9.73504L3.99992 12.4694L6.73492 9.73504C6.80524 9.66481 6.90055 9.62537 6.99992 9.62537C7.0993 9.62537 7.19461 9.66481 7.26492 9.73504ZM1.26492 4.26504L3.99992 1.53066L6.73492 4.26504C6.80601 4.33128 6.90003 4.36734 6.99718 4.36562C7.09434 4.36391 7.18703 4.32455 7.25573 4.25585C7.32444 4.18714 7.3638 4.09445 7.36551 3.9973C7.36723 3.90015 7.33116 3.80612 7.26492 3.73504L4.26492 0.735036C4.19461 0.664811 4.0993 0.625366 3.99992 0.625366C3.90055 0.625366 3.80524 0.664811 3.73492 0.735036L0.734924 3.73504C0.668684 3.80612 0.632622 3.90015 0.634336 3.9973C0.63605 4.09445 0.675406 4.18714 0.744113 4.25585C0.812819 4.32455 0.905512 4.36391 1.00266 4.36562C1.09981 4.36734 1.19384 4.33128 1.26492 4.26504Z" fill="#1C1E29"/>
</svg>
