<svg width="24" height="24" viewBox="0 0 24 24" fill="none" xmlns="http://www.w3.org/2000/svg">
<path d="M20.0951 0H3.90488C1.74827 0 0 1.74828 0 3.90488V20.0951C0 22.2517 1.74827 24 3.90488 24H20.0951C22.2517 24 24 22.2517 24 20.0951V3.90488C24 1.74828 22.2517 0 20.0951 0Z" fill="#F0FF85"/>
<path d="M8.49762 4.92163H4.99219L8.49706 8.42706H12.0025L8.49762 4.92163Z" fill="#1C1E29"/>
<path d="M4.99219 8.42706L8.49762 11.9325L8.49706 8.42706L4.99219 4.92163V8.42706Z" fill="#1C1E29"/>
<path d="M15.6443 4.7854H12.0031L15.6443 8.42606H19.2856L15.6443 4.7854Z" fill="#1C1E29"/>
<path d="M12.0031 8.42606L15.6443 12.0673V8.42606L12.0031 4.7854V8.42606Z" fill="#1C1E29"/>
<path d="M15.6437 19.0787H19.1492L15.6443 15.5732H12.1383L15.6437 19.0787Z" fill="#1C1E29"/>
<path d="M19.15 15.5733L15.6445 12.0679L15.6451 15.5733L19.15 19.0787V15.5733Z" fill="#1C1E29"/>
<path d="M12.1397 19.215H8.49846L7.98296 18.6994L4.85781 15.5737H8.49903L12.1397 19.215Z" fill="#1C1E29"/>
<path d="M12.1397 15.5738L8.49844 11.9326V15.5738L12.1397 19.215V15.5738Z" fill="#1C1E29"/>
</svg>
