<svg width="30" height="30" viewBox="0 0 30 30" fill="none" xmlns="http://www.w3.org/2000/svg">
<path d="M0 5C0 2.23858 2.23858 0 5 0H25C27.7614 0 30 2.23858 30 5V25C30 27.7614 27.7614 30 25 30H5C2.23858 30 0 27.7614 0 25V5Z" fill="#2A2D36"/>
<path d="M21.1444 16.5451L20.2969 15.1351C20.1094 14.8276 19.9444 14.2351 19.9444 13.8751V12.4726C19.9444 9.7501 17.7319 7.5376 15.0169 7.5376C12.2944 7.5451 10.0819 9.7501 10.0819 12.4726V13.8676C10.0819 14.2276 9.91686 14.8201 9.73686 15.1276L8.88936 16.5376C8.56686 17.0851 8.49186 17.7076 8.69436 18.2476C8.89686 18.7951 9.35436 19.2301 9.95436 19.4251C10.7644 19.6951 11.5819 19.8901 12.4144 20.0326C12.4969 20.0476 12.5794 20.0551 12.6619 20.0701C12.7669 20.0851 12.8794 20.1001 12.9919 20.1151C13.1869 20.1451 13.3819 20.1676 13.5844 20.1826C14.0569 20.2276 14.5369 20.2501 15.0169 20.2501C15.4894 20.2501 15.9619 20.2276 16.4269 20.1826C16.5994 20.1676 16.7719 20.1526 16.9369 20.1301C17.0719 20.1151 17.2069 20.1001 17.3419 20.0776C17.4244 20.0701 17.5069 20.0551 17.5894 20.0401C18.4294 19.9051 19.2619 19.6951 20.0719 19.4251C20.6494 19.2301 21.0919 18.7951 21.3019 18.2401C21.5119 17.6776 21.4519 17.0626 21.1444 16.5451ZM15.5644 13.5001C15.5644 13.8151 15.3094 14.0701 14.9944 14.0701C14.6794 14.0701 14.4244 13.8151 14.4244 13.5001V11.1751C14.4244 10.8601 14.6794 10.6051 14.9944 10.6051C15.3094 10.6051 15.5644 10.8601 15.5644 11.1751V13.5001Z" fill="#E1E374"/>
<path d="M17.1242 21.0075C16.8092 21.8775 15.9767 22.5 15.0017 22.5C14.4092 22.5 13.8242 22.26 13.4117 21.8325C13.1717 21.6075 12.9917 21.3075 12.8867 21C12.9842 21.015 13.0817 21.0225 13.1867 21.0375C13.3592 21.06 13.5392 21.0825 13.7192 21.0975C14.1467 21.135 14.5817 21.1575 15.0167 21.1575C15.4442 21.1575 15.8717 21.135 16.2917 21.0975C16.4492 21.0825 16.6067 21.075 16.7567 21.0525C16.8767 21.0375 16.9967 21.0225 17.1242 21.0075Z" fill="#E1E374"/>
</svg>
