<svg width="16" height="16" viewBox="0 0 16 16" fill="none" xmlns="http://www.w3.org/2000/svg">
<path d="M8 0.03125C6.42393 0.03125 4.88326 0.498609 3.5728 1.37423C2.26235 2.24984 1.24097 3.49439 0.637838 4.95049C0.0347026 6.40659 -0.123105 8.00884 0.184371 9.55463C0.491847 11.1004 1.2508 12.5203 2.36525 13.6348C3.4797 14.7492 4.89959 15.5082 6.44538 15.8156C7.99116 16.1231 9.59341 15.9653 11.0495 15.3622C12.5056 14.759 13.7502 13.7377 14.6258 12.4272C15.5014 11.1167 15.9688 9.57607 15.9688 8C15.9663 5.88732 15.1259 3.86188 13.632 2.36798C12.1381 0.87409 10.1127 0.0337311 8 0.03125ZM3.58125 13.4688C4.03968 12.7065 4.68752 12.0757 5.46181 11.6379C6.23609 11.2 7.11048 10.9699 8 10.9699C8.88952 10.9699 9.76392 11.2 10.5382 11.6379C11.3125 12.0757 11.9603 12.7065 12.4188 13.4688C11.169 14.4821 9.60897 15.0352 8 15.0352C6.39104 15.0352 4.83097 14.4821 3.58125 13.4688ZM5.34375 7.375C5.34375 6.84964 5.49954 6.33608 5.79141 5.89927C6.08328 5.46245 6.49813 5.12199 6.9835 4.92095C7.46887 4.7199 8.00295 4.6673 8.51821 4.76979C9.03347 4.87228 9.50677 5.12526 9.87826 5.49675C10.2497 5.86823 10.5027 6.34153 10.6052 6.85679C10.7077 7.37205 10.6551 7.90614 10.4541 8.3915C10.253 8.87687 9.91255 9.29172 9.47574 9.58359C9.03892 9.87546 8.52536 10.0312 8 10.0312C7.29552 10.0312 6.61989 9.7514 6.12175 9.25325C5.62361 8.75511 5.34375 8.07948 5.34375 7.375ZM13.118 12.8156C12.3815 11.6704 11.2806 10.8068 9.99297 10.3641C10.635 9.93642 11.1224 9.31352 11.3831 8.58746C11.6438 7.86141 11.6639 7.07074 11.4406 6.33235C11.2172 5.59397 10.7621 4.94707 10.1426 4.4873C9.52318 4.02753 8.77222 3.77929 8.00078 3.77929C7.22935 3.77929 6.47839 4.02753 5.85893 4.4873C5.23947 4.94707 4.78441 5.59397 4.56101 6.33235C4.33762 7.07074 4.35776 7.86141 4.61845 8.58746C4.87914 9.31352 5.36654 9.93642 6.0086 10.3641C4.72099 10.8068 3.62011 11.6704 2.8836 12.8156C1.94206 11.8165 1.31362 10.5635 1.07582 9.21141C0.838015 7.85928 1.00126 6.46711 1.5454 5.20666C2.08954 3.94622 2.99078 2.87265 4.13792 2.11841C5.28505 1.36417 6.6279 0.962252 8.00078 0.962252C9.37367 0.962252 10.7165 1.36417 11.8637 2.11841C13.0108 2.87265 13.912 3.94622 14.4562 5.20666C15.0003 6.46711 15.1636 7.85928 14.9258 9.21141C14.688 10.5635 14.0595 11.8165 13.118 12.8156Z" fill="#8F94A3"/>
</svg>
