<svg width="16" height="16" viewBox="0 0 16 16" fill="none" xmlns="http://www.w3.org/2000/svg">
<path d="M7.9987 10.4667V10.54C7.9987 10.7267 7.85203 10.8733 7.66536 10.8733H1.66536C1.4787 10.8733 1.33203 10.7267 1.33203 10.54V10.4667C1.33203 9.29333 1.62536 9 2.81203 9H6.5187C7.70536 9 7.9987 9.29333 7.9987 10.4667Z" fill="#E1E374"/>
<path d="M1.66536 11.54C1.4787 11.54 1.33203 11.6867 1.33203 11.8734V12.54V13.2C1.33203 14.3734 1.62536 14.6667 2.81203 14.6667H6.5187C7.70536 14.6667 7.9987 14.3734 7.9987 13.2V12.54V11.8734C7.9987 11.6867 7.85203 11.54 7.66536 11.54H1.66536Z" fill="#E1E374"/>
<path d="M14.6667 10C14.6667 12.58 12.58 14.6667 10 14.6667L10.7 13.5" stroke="#E1E374" stroke-width="1.5" stroke-linecap="round" stroke-linejoin="round"/>
<path d="M1.33203 6.00016C1.33203 3.42016 3.4187 1.3335 5.9987 1.3335L5.2987 2.50016" stroke="#E1E374" stroke-width="1.5" stroke-linecap="round" stroke-linejoin="round"/>
<path d="M12.332 7.3335C13.9889 7.3335 15.332 5.99035 15.332 4.3335C15.332 2.67664 13.9889 1.3335 12.332 1.3335C10.6752 1.3335 9.33203 2.67664 9.33203 4.3335C9.33203 5.99035 10.6752 7.3335 12.332 7.3335Z" fill="#E1E374"/>
</svg>
