<svg width="16" height="16" viewBox="0 0 16 16" fill="none" xmlns="http://www.w3.org/2000/svg">
<path d="M10.792 1.3335H5.20536C2.7787 1.3335 1.33203 2.78016 1.33203 5.20683V10.7935C1.33203 13.2202 2.7787 14.6668 5.20536 14.6668H10.792C13.2187 14.6668 14.6654 13.2202 14.6654 10.7935V5.20683C14.6654 2.78016 13.2187 1.3335 10.792 1.3335ZM5.16536 9.06683C5.16536 9.34016 4.9387 9.56683 4.66536 9.56683C4.39203 9.56683 4.16536 9.34016 4.16536 9.06683V6.9335C4.16536 6.66016 4.39203 6.4335 4.66536 6.4335C4.9387 6.4335 5.16536 6.66016 5.16536 6.9335V9.06683ZM8.4987 10.2268C8.4987 10.5002 8.27203 10.7268 7.9987 10.7268C7.72536 10.7268 7.4987 10.5002 7.4987 10.2268V5.7735C7.4987 5.50016 7.72536 5.2735 7.9987 5.2735C8.27203 5.2735 8.4987 5.50016 8.4987 5.7735V10.2268ZM11.832 9.06683C11.832 9.34016 11.6054 9.56683 11.332 9.56683C11.0587 9.56683 10.832 9.34016 10.832 9.06683V6.9335C10.832 6.66016 11.0587 6.4335 11.332 6.4335C11.6054 6.4335 11.832 6.66016 11.832 6.9335V9.06683Z" fill="#E1E374"/>
</svg>
