<svg width="16" height="16" viewBox="0 0 16 16" fill="none" xmlns="http://www.w3.org/2000/svg">
<path d="M7.4987 5.24023H1.33203V10.7936C1.33203 10.8336 1.33203 10.8736 1.3387 10.9069H7.4987V5.24023Z" fill="#E1E374"/>
<path d="M5.125 4.24016H7.49833V1.3335H5.145V4.16016C5.145 4.18683 5.13167 4.2135 5.125 4.24016Z" fill="#E1E374"/>
<path d="M4.14854 4.15994V1.43994C2.66854 1.74661 1.70188 2.73327 1.42188 4.23994H4.16187C4.15521 4.21327 4.14854 4.18661 4.14854 4.15994Z" fill="#E1E374"/>
<path d="M10.8133 1.3335H8.5V4.24016H10.8133V1.3335Z" fill="#E1E374"/>
<path d="M11.8086 4.23977H14.5819C14.3019 2.71977 13.3219 1.72644 11.8153 1.43311V4.21977C11.8153 4.22644 11.8086 4.23311 11.8086 4.23977Z" fill="#E1E374"/>
<path d="M11.8125 14.5667C13.2725 14.2801 14.2325 13.3467 14.5458 11.9067H11.8125V14.5667Z" fill="#E1E374"/>
<path d="M10.8133 11.9067H8.5V14.6667H10.8133V11.9067Z" fill="#E1E374"/>
<path d="M8.5 10.9069H14.66C14.6667 10.8736 14.6667 10.8336 14.6667 10.7936V5.24023H8.5V10.9069Z" fill="#E1E374"/>
<path d="M7.50177 11.9067H5.14844V14.6667H7.50177V11.9067Z" fill="#E1E374"/>
<path d="M1.45312 11.9067C1.76646 13.3334 2.71312 14.2667 4.14646 14.5601V11.9067H1.45312Z" fill="#E1E374"/>
</svg>
