<svg width="24" height="24" viewBox="0 0 24 24" fill="none" xmlns="http://www.w3.org/2000/svg">
<path d="M17.8816 6.1201L3.92155 20.0801C3.49155 20.5101 2.77155 20.4701 2.42155 19.9801C1.92155 19.2901 1.82155 18.3301 2.34155 17.5001L5.10155 13.0701C5.47155 12.4801 5.47155 11.5201 5.10155 10.9301L2.34155 6.5001C1.41155 5.0201 2.48155 3.1001 4.22155 3.1001H15.6716C16.3516 3.1001 17.1916 3.5701 17.5516 4.1401L18.0216 4.8801C18.2616 5.2801 18.2116 5.7901 17.8816 6.1201Z" fill="#E1E374"/>
<path d="M21.6318 13.11L16.4518 20.01C16.0918 20.5 15.2918 20.9 14.6718 20.9H7.51182C6.62182 20.9 6.17182 19.82 6.80182 19.19L18.3218 7.67999C18.7718 7.22999 19.5418 7.30999 19.8818 7.85999L21.7318 10.83C22.1318 11.47 22.0918 12.5 21.6318 13.11Z" fill="#E1E374"/>
</svg>
