<svg width="350" height="160" viewBox="0 0 350 160" fill="none" xmlns="http://www.w3.org/2000/svg">
<g clip-path="url(#clip0_208_6021)">
<path d="M28.584 563.313H14.291L0 549.09H14.293L28.584 563.313ZM28.583 549.087H42.3418L56.0996 562.78H42.3389L28.5859 549.093V563.313L14.293 549.09V534.865L28.583 549.087ZM95.2842 563.313H80.9912L66.7012 549.09H80.9941L95.2842 563.313ZM95.2842 549.087H109.042L122.801 562.78H109.04L95.2871 549.093V563.313L80.9941 549.09V534.865L95.2842 549.087ZM161.984 563.313H147.691L133.4 549.09H147.693L161.984 563.313ZM161.984 549.087H175.743L189.501 562.78H175.74L161.987 549.093V563.313L147.693 549.09L147.694 534.865L161.984 549.087ZM228.681 549.087H242.44L256.198 562.78H242.438L228.683 549.092L228.682 563.313H214.389L200.098 549.09H214.391L214.389 534.865L228.681 549.087ZM295.384 549.087H309.144L322.901 562.78H309.141L295.386 549.092L295.385 563.313H281.092L266.801 549.09H281.094V534.865L295.384 549.087ZM362.081 549.087H375.841L389.599 562.78H375.839L362.083 549.092L362.082 563.313H347.789L333.498 549.09H347.791L347.789 534.865L362.081 549.087ZM428.784 549.087H442.543L456.301 562.78H442.54L428.786 549.093L428.785 563.313H414.492L400.201 549.09H414.494V534.865L428.784 549.087ZM495.485 549.087H509.244L523.002 562.78H509.242L495.487 549.092L495.486 563.313H481.193L466.903 549.09H481.196L481.195 534.865L495.485 549.087ZM562.184 549.087H575.942L589.7 562.78H575.939L562.186 549.093L562.185 563.313H547.892L533.601 549.09H547.894L547.892 534.865L562.184 549.087ZM56.1025 549.087V562.78L42.3447 549.087L42.3428 535.394L56.1025 549.087ZM122.804 549.087V562.78L109.046 549.087L109.044 535.394L122.804 549.087ZM189.504 549.087V562.78L175.746 549.087L175.744 535.394L189.504 549.087ZM256.201 549.087V562.78L242.443 549.087L242.441 535.394L256.201 549.087ZM322.904 549.087V562.78L309.146 549.087L309.145 535.394L322.904 549.087ZM389.602 549.087V562.78L375.844 549.087L375.842 535.394L389.602 549.087ZM456.304 549.087V562.78L442.546 549.087L442.544 535.394L456.304 549.087ZM523.006 549.087V562.78L509.248 549.087L509.245 535.394L523.006 549.087ZM589.703 549.087V562.78L575.945 549.087L575.943 535.394L589.703 549.087ZM56.6357 521.167H42.3428V535.392L28.0498 521.167V506.945H42.3428L56.6357 521.167ZM123.336 521.167H109.043V535.392L94.75 521.167V506.945H109.043L123.336 521.167ZM190.036 521.167H175.743V535.392L161.45 521.167V506.945H175.743L190.036 521.167ZM256.734 521.167H242.441V535.392L228.147 521.167V506.945H242.441L256.734 521.167ZM323.437 521.167H309.144V535.392L294.851 521.167V506.945H309.144L323.437 521.167ZM390.135 521.167H375.842V535.392L361.549 521.167V506.945H375.842L390.135 521.167ZM456.836 521.167H442.543V535.392L428.25 521.167V506.945H442.543L456.836 521.167ZM523.538 521.167H509.245V535.392L494.952 521.167V506.945H509.245L523.538 521.167ZM590.236 521.167H575.943V535.392L561.65 521.167V506.945H575.943L590.236 521.167ZM28.0469 521.172H14.2871L14.2891 534.865L0.529297 521.172V507.479H14.2891L28.0469 521.172ZM94.749 521.172H80.9893L80.9912 534.865L67.2314 521.172V507.479H80.9912L94.749 521.172ZM161.447 521.172H147.688L147.689 534.865L133.93 521.172V507.479H147.689L161.447 521.172ZM228.146 521.172H214.387L214.389 534.865L200.629 521.172V507.479H214.389L228.146 521.172ZM294.848 521.172H281.088L281.09 534.865L267.33 521.172V507.479H281.09L294.848 521.172ZM361.547 521.172H347.787L347.789 534.865L334.029 521.172V507.479H347.789L361.547 521.172ZM428.248 521.172H414.488L414.49 534.865L400.73 521.172V507.479H414.49L428.248 521.172ZM494.95 521.172H481.19L481.192 534.865L467.433 521.172V507.479H481.192L494.95 521.172ZM561.649 521.172H547.89L547.892 534.865L534.132 521.172V507.479H547.892L561.649 521.172ZM28.584 490.893H14.291L0 476.669H14.293L28.584 490.893ZM28.583 476.666H42.3418L56.0996 490.359H42.3389L28.5859 476.672V490.893L14.293 476.669V462.444L28.583 476.666ZM95.2842 490.893H80.9912L66.7012 476.669H80.9941L95.2842 490.893ZM95.2842 476.666H109.042L122.801 490.359H109.04L95.2871 476.672V490.893L80.9941 476.669V462.444L95.2842 476.666ZM161.984 490.893H147.691L133.4 476.669H147.693L161.984 490.893ZM161.984 476.666H175.743L189.501 490.359H175.74L161.987 476.672V490.893L147.693 476.669L147.694 462.444L161.984 476.666ZM228.681 476.666H242.44L256.198 490.359H242.438L228.683 476.671L228.682 490.893H214.389L200.098 476.669H214.391L214.389 462.444L228.681 476.666ZM295.384 476.666H309.144L322.901 490.359H309.141L295.386 476.671L295.385 490.893H281.092L266.801 476.669H281.094V462.444L295.384 476.666ZM362.081 476.666H375.841L389.599 490.359H375.839L362.083 476.671L362.082 490.893H347.789L333.498 476.669H347.791L347.789 462.444L362.081 476.666ZM428.784 476.666H442.543L456.301 490.36H442.54L428.786 476.672L428.785 490.893H414.492L400.201 476.669H414.494V462.444L428.784 476.666ZM495.485 476.666H509.244L523.002 490.359H509.242L495.487 476.671L495.486 490.893H481.193L466.903 476.669H481.196L481.195 462.444L495.485 476.666ZM562.184 476.666H575.942L589.7 490.359H575.939L562.186 476.672L562.185 490.893H547.892L533.601 476.669H547.894L547.892 462.444L562.184 476.666ZM56.1025 476.666V490.359L42.3447 476.666L42.3428 462.973L56.1025 476.666ZM122.804 476.666V490.359L109.046 476.666L109.044 462.973L122.804 476.666ZM189.504 476.666V490.359L175.746 476.666L175.744 462.973L189.504 476.666ZM256.201 476.666V490.359L242.443 476.666L242.441 462.973L256.201 476.666ZM322.904 476.666V490.359L309.146 476.666L309.145 462.973L322.904 476.666ZM389.602 476.666V490.359L375.844 476.666L375.842 462.973L389.602 476.666ZM456.304 476.666V490.359L442.546 476.666L442.544 462.973L456.304 476.666ZM523.006 476.666V490.359L509.248 476.666L509.245 462.973L523.006 476.666ZM589.703 476.666V490.359L575.945 476.666L575.943 462.973L589.703 476.666ZM56.6357 448.746H42.3428V462.971L28.0498 448.746V434.524H42.3428L56.6357 448.746ZM123.336 448.746H109.043V462.971L94.75 448.746V434.524H109.043L123.336 448.746ZM190.036 448.746H175.743V462.971L161.45 448.746V434.524H175.743L190.036 448.746ZM256.734 448.746H242.441V462.971L228.147 448.746V434.524H242.441L256.734 448.746ZM323.437 448.746H309.144V462.971L294.851 448.746V434.524H309.144L323.437 448.746ZM390.135 448.746H375.842V462.971L361.549 448.746V434.524H375.842L390.135 448.746ZM456.836 448.746H442.543V462.971L428.25 448.746V434.524H442.543L456.836 448.746ZM523.538 448.746H509.245V462.971L494.952 448.746V434.524H509.245L523.538 448.746ZM590.236 448.746H575.943V462.971L561.65 448.746V434.524H575.943L590.236 448.746ZM28.0469 448.751H14.2871L14.2891 462.444L0.529297 448.751V435.058H14.2891L28.0469 448.751ZM94.749 448.751H80.9893L80.9912 462.444L67.2314 448.751V435.058H80.9912L94.749 448.751ZM161.447 448.751H147.688L147.689 462.444L133.93 448.751V435.058H147.689L161.447 448.751ZM228.146 448.751H214.387L214.389 462.444L200.629 448.751V435.058H214.389L228.146 448.751ZM294.848 448.751H281.088L281.09 462.444L267.33 448.751V435.058H281.09L294.848 448.751ZM361.547 448.751H347.787L347.789 462.444L334.029 448.751V435.058H347.789L361.547 448.751ZM428.248 448.751H414.488L414.49 462.444L400.73 448.751V435.058H414.49L428.248 448.751ZM494.95 448.751H481.19L481.192 462.444L467.433 448.751V435.058H481.192L494.95 448.751ZM561.649 448.751H547.89L547.892 462.444L534.132 448.751V435.058H547.892L561.649 448.751ZM28.584 418.472H14.291L0 404.248H14.293L28.584 418.472ZM28.583 404.245H42.3418L56.0996 417.938H42.3389L28.5859 404.251V418.472L14.293 404.248V390.023L28.583 404.245ZM95.2842 418.472H80.9912L66.7012 404.248H80.9941L95.2842 418.472ZM95.2842 404.245H109.042L122.801 417.938H109.04L95.2871 404.251V418.472L80.9941 404.248V390.023L95.2842 404.245ZM161.984 418.472H147.691L133.4 404.248H147.693L161.984 418.472ZM161.984 404.245H175.743L189.501 417.938H175.74L161.987 404.251V418.472L147.693 404.248L147.694 390.023L161.984 404.245ZM228.681 404.245H242.44L256.198 417.938H242.438L228.683 404.25L228.682 418.472H214.389L200.098 404.248H214.391L214.389 390.023L228.681 404.245ZM295.384 404.245H309.144L322.901 417.938H309.141L295.386 404.25L295.385 418.472H281.092L266.801 404.248H281.094V390.023L295.384 404.245ZM362.081 404.245H375.841L389.599 417.938H375.839L362.083 404.25L362.082 418.472H347.789L333.498 404.248H347.791L347.789 390.023L362.081 404.245ZM428.784 404.245H442.543L456.301 417.938H442.54L428.786 404.251L428.785 418.472H414.492L400.201 404.248H414.494V390.023L428.784 404.245ZM495.485 404.245H509.244L523.002 417.938H509.242L495.487 404.25L495.486 418.472H481.193L466.903 404.248H481.196L481.195 390.023L495.485 404.245ZM562.184 404.245H575.942L589.7 417.938H575.939L562.186 404.251L562.185 418.472H547.892L533.601 404.248H547.894L547.892 390.023L562.184 404.245ZM56.1025 404.245V417.938L42.3447 404.245L42.3428 390.552L56.1025 404.245ZM122.804 404.245V417.938L109.046 404.245L109.044 390.552L122.804 404.245ZM189.504 404.245V417.938L175.746 404.245L175.744 390.552L189.504 404.245ZM256.201 404.245V417.938L242.443 404.245L242.441 390.552L256.201 404.245ZM322.904 404.245V417.938L309.146 404.245L309.145 390.552L322.904 404.245ZM389.602 404.245V417.938L375.844 404.245L375.842 390.552L389.602 404.245ZM456.304 404.245V417.938L442.546 404.245L442.544 390.552L456.304 404.245ZM523.006 404.245V417.938L509.248 404.245L509.245 390.552L523.006 404.245ZM589.703 404.245V417.938L575.945 404.245L575.943 390.552L589.703 404.245ZM56.6357 376.326H42.3428V390.55L28.0498 376.326V362.104H42.3428L56.6357 376.326ZM123.336 376.325H109.043V390.55L94.75 376.326V362.104H109.043L123.336 376.325ZM190.036 376.326H175.743V390.55L161.45 376.326V362.104H175.743L190.036 376.326ZM256.734 376.326H242.441V390.55L228.147 376.326V362.104H242.441L256.734 376.326ZM323.437 376.326H309.144V390.55L294.851 376.326V362.104H309.144L323.437 376.326ZM390.135 376.325H375.842V390.55L361.549 376.325V362.104H375.842L390.135 376.325ZM456.836 376.326H442.543V390.55L428.25 376.326V362.104H442.543L456.836 376.326ZM523.538 376.325H509.245V390.55L494.952 376.326V362.104H509.245L523.538 376.325ZM590.236 376.325H575.943V390.55L561.65 376.326V362.104H575.943L590.236 376.325ZM28.0469 376.33H14.2871L14.2891 390.023L0.529297 376.33V362.637H14.2891L28.0469 376.33ZM94.749 376.33H80.9893L80.9912 390.023L67.2314 376.33V362.637H80.9912L94.749 376.33ZM161.447 376.33H147.688L147.689 390.023L133.93 376.33V362.637H147.689L161.447 376.33ZM228.146 376.33H214.387L214.389 390.023L200.629 376.33V362.637H214.389L228.146 376.33ZM294.848 376.33H281.088L281.09 390.023L267.33 376.33V362.637H281.09L294.848 376.33ZM361.547 376.33H347.787L347.789 390.023L334.029 376.33V362.637H347.789L361.547 376.33ZM428.248 376.33H414.488L414.49 390.023L400.73 376.33V362.637H414.49L428.248 376.33ZM494.95 376.33H481.19L481.192 390.023L467.433 376.33V362.637H481.192L494.95 376.33ZM561.649 376.33H547.89L547.892 390.023L534.132 376.33V362.637H547.892L561.649 376.33ZM28.584 346.051H14.291L0 331.827H14.293L28.584 346.051ZM28.583 331.824H42.3418L56.0996 345.519H42.3389L28.5859 331.83V346.051L14.293 331.827V317.603L28.583 331.824ZM95.2842 346.051H80.9912L66.7012 331.827H80.9941L95.2842 346.051ZM95.2842 331.824H109.042L122.801 345.519H109.04L95.2871 331.83V346.051L80.9941 331.827V317.603L95.2842 331.824ZM161.984 346.051H147.691L133.4 331.827H147.693L161.984 346.051ZM161.984 331.824H175.743L189.501 345.519H175.74L161.987 331.83V346.051L147.693 331.827L147.694 317.603L161.984 331.824ZM228.681 331.824H242.44L256.198 345.519H242.438L228.683 331.829L228.682 346.051H214.389L200.098 331.827H214.391L214.389 317.604L228.681 331.824ZM295.384 331.824H309.144L322.901 345.519H309.141L295.386 331.829L295.385 346.051H281.092L266.801 331.827H281.094V317.603L295.384 331.824ZM362.081 331.824H375.841L389.599 345.519H375.839L362.083 331.829L362.082 346.051H347.789L333.498 331.827H347.791L347.789 317.604L362.081 331.824ZM428.785 346.051H414.492L400.201 331.827H414.494L428.785 346.051ZM428.784 331.824H442.543L456.301 345.519H442.54L428.787 331.83V346.051L414.494 331.827V317.603L428.784 331.824ZM495.485 331.824H509.244L523.002 345.519H509.242L495.487 331.829L495.486 346.051H481.193L466.903 331.827H481.196L481.195 317.603L495.485 331.824ZM562.184 331.824H575.942L589.7 345.519H575.939L562.186 331.83L562.185 346.051H547.892L533.601 331.827H547.894L547.892 317.604L562.184 331.824ZM56.1025 331.824V345.519L42.3447 331.824L42.3428 318.131L56.1025 331.824ZM122.804 331.824V345.519L109.046 331.824L109.044 318.131L122.804 331.824ZM189.504 331.824V345.519L175.746 331.824L175.744 318.131L189.504 331.824ZM256.201 331.824V345.519L242.443 331.824L242.441 318.131L256.201 331.824ZM322.904 331.824V345.519L309.146 331.824L309.145 318.131L322.904 331.824ZM389.602 331.824V345.519L375.844 331.824L375.842 318.131L389.602 331.824ZM456.304 331.824V345.519L442.546 331.824L442.544 318.131L456.304 331.824ZM523.006 331.824V345.519L509.248 331.824L509.245 318.131L523.006 331.824ZM589.703 331.824V345.519L575.945 331.824L575.943 318.131L589.703 331.824ZM56.6357 303.905H42.3428V318.129L28.0498 303.905V289.683H42.3428L56.6357 303.905ZM123.336 303.905H109.043V318.129L94.75 303.905V289.683H109.043L123.336 303.905ZM190.036 303.905H175.743V318.129L161.45 303.905V289.683H175.743L190.036 303.905ZM256.734 303.905H242.441V318.129L228.147 303.905V289.683H242.441L256.734 303.905ZM323.437 303.905H309.144V318.129L294.851 303.905V289.683H309.144L323.437 303.905ZM390.135 303.905H375.842V318.129L361.549 303.905V289.683H375.842L390.135 303.905ZM456.836 303.905H442.543V318.129L428.25 303.905V289.683H442.543L456.836 303.905ZM523.538 303.905H509.245V318.129L494.952 303.905V289.683H509.245L523.538 303.905ZM590.236 303.905H575.943V318.129L561.65 303.905V289.683H575.943L590.236 303.905ZM28.0469 303.909H14.2871L14.2891 317.604L0.529297 303.909V290.216H14.2891L28.0469 303.909ZM94.749 303.909H80.9893L80.9912 317.604L67.2314 303.909V290.216H80.9912L94.749 303.909ZM161.447 303.909H147.688L147.689 317.604L133.93 303.909V290.216H147.689L161.447 303.909ZM228.146 303.909H214.387L214.389 317.604L200.629 303.909V290.216H214.389L228.146 303.909ZM294.848 303.909H281.088L281.09 317.604L267.33 303.909V290.216H281.09L294.848 303.909ZM361.547 303.909H347.787L347.789 317.604L334.029 303.909V290.216H347.789L361.547 303.909ZM428.248 303.909H414.488L414.49 317.604L400.73 303.909V290.216H414.49L428.248 303.909ZM494.95 303.909H481.19L481.192 317.604L467.433 303.909V290.216H481.192L494.95 303.909ZM561.649 303.909H547.89L547.892 317.604L534.132 303.909V290.216H547.892L561.649 303.909ZM28.584 273.63H14.291L0 259.406H14.293L28.584 273.63ZM28.583 259.403H42.3418L56.0996 273.098H42.3389L28.5859 259.409V273.63L14.293 259.406V245.183L28.583 259.403ZM95.2842 273.63H80.9912L66.7012 259.406H80.9941L95.2842 273.63ZM95.2842 259.403H109.042L122.801 273.098H109.04L95.2871 259.409V273.63L80.9941 259.406V245.183L95.2842 259.403ZM161.984 273.63H147.691L133.4 259.406H147.693L161.984 273.63ZM161.984 259.403H175.743L189.501 273.098H175.74L161.987 259.409V273.63L147.693 259.406L147.694 245.183L161.984 259.403ZM228.681 259.403H242.44L256.198 273.098H242.438L228.683 259.408L228.682 273.63H214.389L200.098 259.406H214.391L214.389 245.183L228.681 259.403ZM295.384 259.403H309.144L322.901 273.098H309.141L295.386 259.408L295.385 273.63H281.092L266.801 259.406H281.094V245.183L295.384 259.403ZM362.081 259.403H375.841L389.599 273.098H375.839L362.083 259.408L362.082 273.63H347.789L333.498 259.406H347.791L347.789 245.183L362.081 259.403ZM428.785 273.63H414.492L400.201 259.406H414.494L428.785 273.63ZM428.785 259.404H442.543L456.301 273.098H442.54L428.787 259.41V273.63L414.494 259.406V245.183L428.785 259.404ZM495.485 259.403H509.244L523.002 273.098H509.242L495.487 259.408L495.486 273.63H481.193L466.903 259.406H481.196L481.195 245.183L495.485 259.403ZM562.184 259.403H575.942L589.7 273.098H575.939L562.186 259.409L562.185 273.63H547.892L533.601 259.406H547.894L547.892 245.183L562.184 259.403ZM56.1025 259.403V273.098L42.3447 259.403L42.3428 245.708L56.1025 259.403ZM122.804 259.403V273.098L109.046 259.403L109.043 245.708L122.804 259.403ZM189.504 259.403V273.098L175.746 259.403L175.743 245.708L189.504 259.403ZM256.201 259.403V273.098L242.443 259.403L242.441 245.708L256.201 259.403ZM322.904 259.403V273.098L309.146 259.403L309.144 245.708L322.904 259.403ZM389.602 259.403V273.098L375.844 259.403L375.842 245.708L389.602 259.403ZM456.304 259.404V273.098L442.546 259.404L442.544 245.71L456.304 259.404ZM523.006 259.403V273.098L509.248 259.403L509.245 245.708L523.006 259.403ZM589.703 259.403V273.098L575.945 259.403L575.943 245.708L589.703 259.403ZM56.6357 231.484H42.3428V245.708L28.0498 231.484V217.263H42.3428L56.6357 231.484ZM123.336 231.484H109.043V245.708L94.75 231.484V217.263H109.043L123.336 231.484ZM190.036 231.484H175.743V245.708L161.45 231.484V217.263H175.743L190.036 231.484ZM256.734 231.484H242.441V245.708L228.147 231.484V217.263H242.441L256.734 231.484ZM323.437 231.484H309.144V245.708L294.851 231.484V217.263H309.144L323.437 231.484ZM390.135 231.484H375.842V245.708L361.549 231.484V217.263H375.842L390.135 231.484ZM456.836 231.484H442.543V245.708L428.25 231.484V217.263H442.543L456.836 231.484ZM523.538 231.484H509.245V245.708L494.952 231.484V217.263H509.245L523.538 231.484ZM590.236 231.484H575.943V245.708L561.65 231.484V217.263H575.943L590.236 231.484ZM28.0469 231.488H14.2871L14.2891 245.183L0.529297 231.488V217.795H14.2891L28.0469 231.488ZM94.749 231.488H80.9893L80.9912 245.183L67.2314 231.488V217.795H80.9912L94.749 231.488ZM161.447 231.488H147.688L147.689 245.183L133.93 231.488V217.795H147.689L161.447 231.488ZM228.146 231.488H214.387L214.389 245.183L200.629 231.488V217.795H214.389L228.146 231.488ZM294.848 231.488H281.088L281.09 245.183L267.33 231.488V217.795H281.09L294.848 231.488ZM361.547 231.488H347.787L347.789 245.183L334.029 231.488V217.795H347.789L361.547 231.488ZM428.248 231.488H414.488L414.49 245.183L400.73 231.488V217.795H414.49L428.248 231.488ZM494.95 231.488H481.19L481.192 245.183L467.433 231.488V217.795H481.192L494.95 231.488ZM561.649 231.488H547.89L547.892 245.183L534.132 231.488V217.795H547.892L561.649 231.488ZM362.082 186.983H375.841L389.599 200.677H375.839L362.083 186.988L362.082 201.21H347.789L333.498 186.985H347.791L347.789 172.762L362.082 186.983ZM428.785 201.21H414.492L400.201 186.985H414.494L428.785 201.21ZM28.584 201.209H14.291L0 186.985H14.293L28.584 201.209ZM28.584 186.983H42.3418L56.0996 200.677H42.3389L28.5859 186.989V201.209L14.293 186.985V172.762L28.584 186.983ZM95.2842 201.209H80.9912L66.7012 186.985H80.9941L95.2842 201.209ZM95.2852 186.983H109.042L122.801 200.677H109.04L95.2871 186.989V201.209L80.9941 186.985V172.762L95.2852 186.983ZM161.984 201.209H147.691L133.4 186.985H147.693L161.984 201.209ZM161.985 186.983H175.743L189.501 200.677H175.74L161.987 186.989V201.209L147.693 186.985L147.694 172.762L161.985 186.983ZM228.682 186.983H242.44L256.198 200.677H242.438L228.683 186.988L228.682 201.209H214.389L200.098 186.985H214.391L214.389 172.762L228.682 186.983ZM295.385 186.983H309.144L322.901 200.677H309.141L295.386 186.988L295.385 201.209H281.092L266.801 186.985H281.094V172.762L295.385 186.983ZM428.785 186.983H442.543L456.301 200.677H442.54L428.787 186.989V201.209L414.494 186.985V172.762L428.785 186.983ZM495.486 186.983H509.244L523.002 200.677H509.242L495.487 186.988L495.486 201.209H481.193L466.903 186.985H481.196L481.195 172.762L495.486 186.983ZM562.185 186.983H575.942L589.7 200.677H575.939L562.186 186.989L562.185 201.209H547.892L533.601 186.985H547.894L547.892 172.762L562.185 186.983ZM56.1025 186.983V200.677L42.3447 186.983L42.3428 173.289L56.1025 186.983ZM122.804 186.983V200.677L109.046 186.983L109.044 173.289L122.804 186.983ZM189.504 186.983V200.677L175.746 186.983L175.744 173.289L189.504 186.983ZM256.201 186.983V200.677L242.443 186.983L242.441 173.289L256.201 186.983ZM322.904 186.983V200.677L309.146 186.983L309.145 173.289L322.904 186.983ZM389.602 186.983V200.677L375.844 186.983L375.842 173.29L389.602 186.983ZM456.304 186.983V200.677L442.546 186.983L442.544 173.289L456.304 186.983ZM523.006 186.983V200.677L509.248 186.983L509.245 173.289L523.006 186.983ZM589.703 186.983V200.677L575.945 186.983L575.943 173.289L589.703 186.983ZM56.6357 159.063H42.3428V173.287L28.0498 159.063V144.842H42.3428L56.6357 159.063ZM123.336 159.063H109.043V173.287L94.75 159.063V144.842H109.043L123.336 159.063ZM190.036 159.063H175.743V173.287L161.45 159.063V144.842H175.743L190.036 159.063ZM256.734 159.063H242.441V173.287L228.147 159.063V144.842H242.441L256.734 159.063ZM323.437 159.063H309.144V173.287L294.851 159.063V144.842H309.144L323.437 159.063ZM390.134 159.063H375.841V173.287L361.548 159.063V144.842H375.841L390.134 159.063ZM456.836 159.063H442.543V173.287L428.25 159.063V144.842H442.543L456.836 159.063ZM523.538 159.063H509.245V173.287L494.952 159.063V144.842H509.245L523.538 159.063ZM590.236 159.063H575.943V173.287L561.65 159.063V144.842H575.943L590.236 159.063ZM28.0469 159.067H14.2871L14.2891 172.762L0.529297 159.067V145.374H14.2891L28.0469 159.067ZM94.749 159.067H80.9893L80.9912 172.762L67.2314 159.067V145.374H80.9912L94.749 159.067ZM161.447 159.067H147.688L147.689 172.762L133.93 159.067V145.374H147.689L161.447 159.067ZM228.146 159.067H214.387L214.389 172.762L200.629 159.067V145.374H214.389L228.146 159.067ZM294.848 159.067H281.088L281.09 172.762L267.33 159.067V145.374H281.09L294.848 159.067ZM361.547 159.068H347.787L347.789 172.762L334.029 159.068V145.374H347.789L361.547 159.068ZM428.248 159.067H414.488L414.49 172.762L400.73 159.067V145.374H414.49L428.248 159.067ZM494.95 159.067H481.19L481.192 172.762L467.433 159.067V145.374H481.192L494.95 159.067ZM561.649 159.067H547.89L547.892 172.762L534.132 159.067V145.374H547.892L561.649 159.067ZM28.584 128.789H14.291L0 114.564H14.293L28.584 128.789ZM95.2842 128.789H80.9912L66.7012 114.564H80.9941L95.2842 128.789ZM161.984 128.789H147.691L133.4 114.564H147.693L161.984 128.789ZM228.682 114.562H242.44L256.198 128.256H242.438L228.683 114.567L228.682 128.789H214.389L200.098 114.564H214.391L214.389 100.341L228.682 114.562ZM295.385 114.562H309.144L322.901 128.256H309.141L295.386 114.567L295.385 128.789H281.092L266.801 114.564H281.094V100.341L295.385 114.562ZM362.082 114.562H375.841L389.599 128.256H375.839L362.083 114.567L362.082 128.789H347.789L333.498 114.564H347.791L347.789 100.341L362.082 114.562ZM428.785 128.789H414.492L400.201 114.564H414.494L428.785 128.789ZM495.486 114.562H509.244L523.002 128.256H509.242L495.487 114.567L495.486 128.789H481.193L466.903 114.564H481.196L481.195 100.341L495.486 114.562ZM562.185 114.562H575.942L589.7 128.256H575.939L562.186 114.568L562.185 128.789H547.892L533.601 114.564H547.894L547.892 100.341L562.185 114.562ZM28.584 114.562H42.3418L56.0996 128.256H42.3389L28.5859 114.568V128.788L14.293 114.564V100.341L28.584 114.562ZM95.2852 114.562H109.042L122.801 128.256H109.04L95.2871 114.568V128.788L80.9941 114.564V100.341L95.2852 114.562ZM161.985 114.562H175.743L189.501 128.256H175.74L161.987 114.568V128.788L147.693 114.564L147.694 100.341L161.985 114.562ZM428.785 114.562H442.543L456.301 128.256H442.54L428.787 114.568V128.788L414.494 114.564V100.341L428.785 114.562ZM56.1025 114.562V128.256L42.3447 114.562L42.3428 100.868L56.1025 114.562ZM122.804 114.562V128.256L109.046 114.562L109.044 100.868L122.804 114.562ZM189.504 114.562V128.256L175.746 114.562L175.744 100.868L189.504 114.562ZM256.201 114.562V128.256L242.443 114.562L242.441 100.868L256.201 114.562ZM322.904 114.562V128.256L309.146 114.562L309.145 100.868L322.904 114.562ZM389.602 114.562V128.256L375.844 114.562L375.842 100.868L389.602 114.562ZM456.304 114.562V128.256L442.546 114.562L442.544 100.869L456.304 114.562ZM523.006 114.562V128.256L509.248 114.562L509.245 100.868L523.006 114.562ZM589.703 114.562V128.256L575.945 114.562L575.943 100.868L589.703 114.562ZM56.6357 86.6426H42.3428V100.866L28.0498 86.6426V72.4209H42.3428L56.6357 86.6426ZM123.336 86.6426H109.043V100.866L94.75 86.6426V72.4209H109.043L123.336 86.6426ZM190.036 86.6426H175.743V100.866L161.45 86.6426V72.4209H175.743L190.036 86.6426ZM256.734 86.6426H242.441V100.866L228.147 86.6426V72.4209H242.441L256.734 86.6426ZM323.437 86.6426H309.144V100.866L294.851 86.6426V72.4209H309.144L323.437 86.6426ZM390.135 86.6426H375.842V100.866L361.549 86.6426V72.4209H375.842L390.135 86.6426ZM456.836 86.6426H442.543V100.866L428.25 86.6426V72.4209H442.543L456.836 86.6426ZM523.538 86.6426H509.245V100.866L494.952 86.6426V72.4209H509.245L523.538 86.6426ZM590.236 86.6426H575.943V100.866L561.65 86.6426V72.4209H575.943L590.236 86.6426ZM28.0469 86.6465H14.2871L14.2891 100.341L0.529297 86.6465V72.9531H14.2891L28.0469 86.6465ZM94.749 86.6465H80.9893L80.9912 100.341L67.2314 86.6465V72.9531H80.9912L94.749 86.6465ZM161.447 86.6465H147.688L147.689 100.341L133.93 86.6465V72.9531H147.689L161.447 86.6465ZM228.146 86.6465H214.387L214.389 100.341L200.629 86.6465V72.9531H214.389L228.146 86.6465ZM294.848 86.6465H281.088L281.09 100.341L267.33 86.6465V72.9531H281.09L294.848 86.6465ZM361.547 86.6465H347.787L347.789 100.341L334.029 86.6465V72.9531H347.789L361.547 86.6465ZM428.248 86.6465H414.488L414.49 100.341L400.73 86.6465V72.9531H414.49L428.248 86.6465ZM494.95 86.6465H481.19L481.192 100.341L467.433 86.6465V72.9531H481.192L494.95 86.6465ZM561.649 86.6465H547.89L547.892 100.341L534.132 86.6465V72.9531H547.892L561.649 86.6465ZM28.584 56.3682H14.291L0 42.1436H14.293L28.584 56.3682ZM28.584 42.1416H42.3418L56.0996 55.835H42.3389L28.5859 42.1475V56.3682L14.293 42.1436V27.9199L28.584 42.1416ZM95.2842 56.3682H80.9912L66.7012 42.1436H80.9941L95.2842 56.3682ZM95.2852 42.1416H109.042L122.801 55.835H109.04L95.2871 42.1475V56.3682L80.9941 42.1436V27.9199L95.2852 42.1416ZM161.984 56.3682H147.691L133.4 42.1436H147.693L161.984 56.3682ZM161.985 42.1416H175.743L189.501 55.835H175.74L161.987 42.1475V56.3682L147.693 42.1436L147.694 27.9199L161.985 42.1416ZM228.682 42.1416H242.44L256.198 55.835H242.438L228.683 42.1465L228.682 56.3682H214.389L200.098 42.1436H214.391L214.389 27.9199L228.682 42.1416ZM295.385 42.1416H309.144L322.901 55.835H309.141L295.386 42.1465L295.385 56.3682H281.092L266.801 42.1436H281.094V27.9199L295.385 42.1416ZM362.082 42.1416H375.841L389.599 55.835H375.839L362.083 42.1465L362.082 56.3682H347.789L333.498 42.1436H347.791L347.789 27.9199L362.082 42.1416ZM495.486 42.1416H509.244L523.002 55.835H509.242L495.487 42.1465L495.486 56.3682H481.193L466.903 42.1436H481.196L481.195 27.9199L495.486 42.1416ZM562.185 42.1416H575.942L589.7 55.835H575.939L562.186 42.1475L562.185 56.3682H547.892L533.601 42.1436H547.894L547.892 27.9199L562.185 42.1416ZM428.785 56.3672H414.492L400.201 42.1436H414.494L428.785 56.3672ZM428.785 42.1416H442.543L456.301 55.835H442.54L428.787 42.1475V56.3672L414.494 42.1436V27.9199L428.785 42.1416ZM56.1025 42.1416V55.835L42.3447 42.1416L42.3428 28.4473L56.1025 42.1416ZM122.804 42.1416V55.835L109.046 42.1416L109.044 28.4473L122.804 42.1416ZM189.504 42.1416V55.835L175.746 42.1416L175.744 28.4473L189.504 42.1416ZM256.201 42.1416V55.835L242.443 42.1416L242.441 28.4473L256.201 42.1416ZM322.904 42.1416V55.835L309.146 42.1416L309.145 28.4473L322.904 42.1416ZM389.602 42.1416V55.835L375.844 42.1416L375.842 28.4473L389.602 42.1416ZM456.304 42.1416V55.835L442.546 42.1416L442.544 28.4482L456.304 42.1416ZM523.006 42.1416V55.835L509.248 42.1416L509.245 28.4453L523.006 42.1416ZM589.703 42.1416V55.835L575.945 42.1416L575.943 28.4453L589.703 42.1416ZM56.6357 14.2217H42.3428V28.4453L28.0498 14.2217V0H42.3428L56.6357 14.2217ZM123.336 14.2217H109.043V28.4453L94.75 14.2217V0H109.043L123.336 14.2217ZM190.036 14.2217H175.743V28.4453L161.45 14.2217V0H175.743L190.036 14.2217ZM256.734 14.2217H242.441V28.4453L228.147 14.2217V0H242.441L256.734 14.2217ZM323.437 14.2217H309.144V28.4453L294.851 14.2217V0H309.144L323.437 14.2217ZM390.135 14.2217H375.842V28.4453L361.549 14.2217V0H375.842L390.135 14.2217ZM456.836 14.2217H442.543V28.4453L428.25 14.2217V0H442.543L456.836 14.2217ZM523.538 14.2217H509.245V28.4453L494.952 14.2217V0H509.245L523.538 14.2217ZM590.236 14.2217H575.943V28.4453L561.65 14.2217V0H575.943L590.236 14.2217ZM28.0469 14.2256H14.2871L14.2891 27.9199L0.529297 14.2256V0.532227H14.2891L28.0469 14.2256ZM94.749 14.2256H80.9893L80.9912 27.9199L67.2314 14.2256V0.532227H80.9912L94.749 14.2256ZM161.447 14.2256H147.688L147.689 27.9199L133.93 14.2256V0.532227H147.689L161.447 14.2256ZM228.146 14.2256H214.387L214.389 27.9199L200.629 14.2256V0.532227H214.389L228.146 14.2256ZM294.848 14.2256H281.088L281.09 27.9199L267.33 14.2256V0.532227H281.09L294.848 14.2256ZM361.547 14.2256H347.787L347.789 27.9199L334.029 14.2256V0.532227H347.789L361.547 14.2256ZM428.248 14.2256H414.488L414.49 27.9199L400.73 14.2256V0.532227H414.49L428.248 14.2256ZM494.95 14.2256H481.19L481.192 27.9199L467.433 14.2256V0.532227H481.192L494.95 14.2256ZM561.649 14.2256H547.89L547.892 27.9199L534.132 14.2256V0.532227H547.892L561.649 14.2256Z" fill="url(#paint0_linear_208_6021)"/>
</g>
<defs>
<linearGradient id="paint0_linear_208_6021" x1="295.118" y1="-1.11198e-08" x2="295" y2="158" gradientUnits="userSpaceOnUse">
<stop stop-color="#CFEB00" stop-opacity="0.05"/>
<stop offset="1" stop-color="#879900" stop-opacity="0.5"/>
</linearGradient>
<clipPath id="clip0_208_6021">
<path d="M0 12C0 5.37258 5.37258 0 12 0H338C344.627 0 350 5.37258 350 12V170C350 176.627 344.627 182 338 182H12C5.37259 182 0 176.627 0 170V12Z" fill="white"/>
</clipPath>
</defs>
</svg>
