<svg width="150" height="150" viewBox="0 0 150 150" fill="none" xmlns="http://www.w3.org/2000/svg">
<path fill-rule="evenodd" clip-rule="evenodd" d="M115.983 24.8915C116.016 22.7092 117.812 20.9671 119.994 21.0005C122.177 21.0338 123.919 22.83 123.885 25.0123L123.761 33.1411C123.728 35.3234 121.932 37.0655 119.749 37.0321C117.567 36.9988 115.825 35.2026 115.858 33.0203L115.983 24.8915ZM119.948 24.0001C119.423 23.9921 118.99 24.4117 118.982 24.9374L118.858 33.0662C118.85 33.5918 119.27 34.0245 119.795 34.0325C120.321 34.0405 120.753 33.6209 120.761 33.0953L120.886 24.9664C120.894 24.4408 120.474 24.0082 119.948 24.0001ZM124.332 41.311C124.365 39.1287 126.162 37.3866 128.344 37.42L136.473 37.5442C138.655 37.5775 140.397 39.3737 140.364 41.556C140.33 43.7383 138.534 45.4804 136.352 45.4471L128.223 45.3228C126.041 45.2895 124.299 43.4933 124.332 41.311ZM128.298 40.4196C127.772 40.4116 127.34 40.8312 127.332 41.3568C127.324 41.8825 127.743 42.3151 128.269 42.3232L136.398 42.4474C136.923 42.4554 137.356 42.0358 137.364 41.5102C137.372 40.9845 136.953 40.5519 136.427 40.5439L128.298 40.4196ZM32.7942 47.6452C33.985 43.0009 38.1706 39.7531 42.9651 39.7531H110.536C115.33 39.7531 119.516 43.0009 120.707 47.6452L127.996 76.0733C128.348 77.4465 128.419 78.8767 128.203 80.2778L123.968 107.803C123.18 112.925 118.773 116.706 113.591 116.706H50.4418C47.3073 124.361 39.7834 129.753 31 129.753C19.402 129.753 10 120.351 10 108.753C10 98.7187 17.0382 90.3278 26.4474 88.2481L25.2771 80.233C25.0763 78.8571 25.1507 77.455 25.496 76.1081L32.7942 47.6452ZM29.4155 87.8122C29.9386 87.7731 30.467 87.7533 31 87.7533C42.598 87.7533 52 97.1553 52 108.753C52 110.459 51.7965 112.118 51.4125 113.706H113.591C117.292 113.706 120.44 111.005 121.003 107.347L125.238 79.8217L125.247 79.7636L125.252 79.7288H102.884L96.5431 88.6055C94.5722 91.3648 91.3899 93.0025 87.9989 93.0025H66.4484C63.0574 93.0025 59.8752 91.3648 57.9042 88.6055L51.5638 79.7288H28.2357L28.2457 79.7996L29.4155 87.8122ZM117.801 48.3903L125.067 76.7288H115.226V75.7817V75.6961V67.7997V66.2156V56.7337C115.226 52.5915 111.868 49.2336 107.726 49.2336H45.7729C41.6308 49.2336 38.2729 52.5915 38.2729 56.7337V66.2156V67.7997V75.6961V75.7817V76.7288H28.4339L35.7002 48.3903C36.5508 45.073 39.5405 42.7531 42.9651 42.7531H110.536C113.961 42.7531 116.95 45.073 117.801 48.3903ZM112.226 60.215C110.972 59.2735 109.414 58.7156 107.726 58.7156H45.7729C44.0845 58.7156 42.5264 59.2735 41.2729 60.215V56.7337C41.2729 54.2484 43.2877 52.2336 45.7729 52.2336H107.726C110.211 52.2336 112.226 54.2484 112.226 56.7337V60.215ZM41.2729 76.7288H52.3357C52.8201 76.7288 53.2747 76.9628 53.5563 77.357L60.3454 86.8617C61.7532 88.8327 64.0263 90.0025 66.4484 90.0025H87.9989C90.4211 90.0025 92.6941 88.8327 94.1019 86.8617L100.891 77.357C101.173 76.9628 101.627 76.7288 102.112 76.7288H112.226V75.9237L111.924 74.3451C111.886 74.1448 111.84 73.9477 111.786 73.754C111.061 72.241 109.516 71.1961 107.726 71.1961H45.7729C43.7025 71.1961 41.9586 72.5944 41.4341 74.4981C41.4092 74.646 41.3884 74.7954 41.3721 74.9463L41.2729 75.8626V76.7288ZM13 108.753C13 98.8122 21.0589 90.7533 31 90.7533C40.9411 90.7533 49 98.8122 49 108.753C49 118.695 40.9411 126.753 31 126.753C21.0589 126.753 13 118.695 13 108.753ZM27.25 99.0033C27.25 96.9322 28.9289 95.2533 31 95.2533C33.0711 95.2533 34.75 96.9322 34.75 99.0033V108.003C34.75 110.074 33.0711 111.753 31 111.753C28.9289 111.753 27.25 110.074 27.25 108.003V99.0033ZM31 98.2533C30.5858 98.2533 30.25 98.5891 30.25 99.0033V108.003C30.25 108.418 30.5858 108.753 31 108.753C31.4142 108.753 31.75 108.418 31.75 108.003V99.0033C31.75 98.5891 31.4142 98.2533 31 98.2533ZM31 122.253C28.9289 122.253 27.25 120.574 27.25 118.503C27.25 116.432 28.9289 114.753 31 114.753C33.0711 114.753 34.75 116.432 34.75 118.503C34.75 120.574 33.0711 122.253 31 122.253ZM30.25 118.503C30.25 118.918 30.5858 119.253 31 119.253C31.4142 119.253 31.75 118.918 31.75 118.503C31.75 118.089 31.4142 117.753 31 117.753C30.5858 117.753 30.25 118.089 30.25 118.503Z" fill="#1C1E29"/>
</svg>
