<svg width="30" height="30" viewBox="0 0 30 30" fill="none" xmlns="http://www.w3.org/2000/svg">
<path d="M25.1189 0H4.8811C2.18534 0 0 2.18535 0 4.8811V25.1189C0 27.8147 2.18534 30 4.8811 30H25.1189C27.8147 30 30 27.8147 30 25.1189V4.8811C30 2.18535 27.8147 0 25.1189 0Z" fill="#E1E374"/>
<path d="M10.624 6.15234H6.24219L10.6233 10.5341H15.0051L10.624 6.15234Z" fill="#2A2D36"/>
<path d="M6.24219 10.5341L10.624 14.9159L10.6233 10.5341L6.24219 6.15234V10.5341Z" fill="#2A2D36"/>
<path d="M19.5593 5.98193H15.0078L19.5593 10.5328H24.1108L19.5593 5.98193Z" fill="#2A2D36"/>
<path d="M15.0078 10.5328L19.5593 15.0843V10.5328L15.0078 5.98193V10.5328Z" fill="#2A2D36"/>
<path d="M19.5576 23.8486H23.9394L19.5583 19.4668H15.1758L19.5576 23.8486Z" fill="#2A2D36"/>
<path d="M23.9404 19.4668L19.5586 15.085L19.5593 19.4668L23.9404 23.8485V19.4668Z" fill="#2A2D36"/>
<path d="M15.1765 24.0188H10.625L9.98065 23.3744L6.07422 19.4673H10.6257L15.1765 24.0188Z" fill="#2A2D36"/>
<path d="M15.1765 19.4675L10.625 14.916V19.4675L15.1765 24.019V19.4675Z" fill="#2A2D36"/>
</svg>
